<svg xmlns="http://www.w3.org/2000/svg" xmlns:xlink="http://www.w3.org/1999/xlink" width="1024" zoomAndPan="magnify" viewBox="0 0 768 576" height="768" preserveAspectRatio="xMidYMid meet" version="1.0"><defs><g/><clipPath id="c259b31a08"><path d="M 135.308594 77.15625 L 229 77.15625 L 229 93.65625 L 135.308594 93.65625 Z M 135.308594 77.15625 " clip-rule="nonzero"/></clipPath><clipPath id="e8446ba08e"><path d="M 253 73.136719 L 397 73.136719 L 397 98.636719 L 253 98.636719 Z M 253 73.136719 " clip-rule="nonzero"/></clipPath><clipPath id="bcb07f21de"><path d="M 183 162.125 L 550 162.125 L 550 228.125 L 183 228.125 Z M 183 162.125 " clip-rule="nonzero"/></clipPath><clipPath id="7bcfdef69c"><path d="M 451 77.53125 L 570.691406 77.53125 L 570.691406 99.28125 L 451 99.28125 Z M 451 77.53125 " clip-rule="nonzero"/></clipPath></defs><g clip-path="url(#c259b31a08)"><path fill="#000000" d="M 135.785156 92.84375 C 135.785156 88.09375 139.710938 84.230469 144.53125 84.230469 L 170.660156 84.230469 C 175.210938 84.230469 179.449219 81.632812 181.453125 77.609375 C 181.589844 77.332031 181.878906 77.15625 182.191406 77.15625 C 182.507812 77.15625 182.792969 77.332031 182.933594 77.609375 C 184.9375 81.632812 189.171875 84.230469 193.722656 84.230469 L 219.855469 84.230469 C 224.675781 84.230469 228.597656 88.09375 228.597656 92.84375 C 228.597656 93.292969 228.230469 93.65625 227.773438 93.65625 C 227.320312 93.65625 226.949219 93.292969 226.949219 92.84375 C 226.949219 88.988281 223.765625 85.855469 219.855469 85.855469 L 193.722656 85.855469 C 189.054688 85.855469 184.679688 83.449219 182.191406 79.621094 C 179.707031 83.449219 175.328125 85.855469 170.660156 85.855469 L 144.53125 85.855469 C 140.617188 85.855469 137.433594 88.988281 137.433594 92.84375 C 137.433594 93.292969 137.066406 93.65625 136.609375 93.65625 C 136.15625 93.65625 135.785156 93.292969 135.785156 92.84375 " fill-opacity="1" fill-rule="nonzero"/></g><g fill="#7ed957" fill-opacity="1"><g transform="translate(134.985786, 148.454824)"><g><path d="M 40.25 -42.828125 L 40.25 -15.125 C 40.25 -11.957031 39.539062 -9.179688 38.125 -6.796875 C 36.707031 -4.410156 34.660156 -2.582031 31.984375 -1.3125 C 29.316406 -0.0390625 26.15625 0.59375 22.5 0.59375 C 16.988281 0.59375 12.707031 -0.816406 9.65625 -3.640625 C 6.613281 -6.460938 5.09375 -10.328125 5.09375 -15.234375 L 5.09375 -42.828125 L 14.15625 -42.828125 L 14.15625 -16.609375 C 14.15625 -13.304688 14.816406 -10.882812 16.140625 -9.34375 C 17.472656 -7.800781 19.671875 -7.03125 22.734375 -7.03125 C 25.703125 -7.03125 27.851562 -7.804688 29.1875 -9.359375 C 30.53125 -10.910156 31.203125 -13.347656 31.203125 -16.671875 L 31.203125 -42.828125 Z M 40.25 -42.828125 "/></g></g><g transform="translate(180.337347, 148.454824)"><g><path d="M 34.921875 0 L 25.984375 0 L 25.984375 -19.125 C 25.984375 -21.488281 25.5625 -23.257812 24.71875 -24.4375 C 23.882812 -25.625 22.550781 -26.21875 20.71875 -26.21875 C 18.21875 -26.21875 16.410156 -25.382812 15.296875 -23.71875 C 14.179688 -22.050781 13.625 -19.28125 13.625 -15.40625 L 13.625 0 L 4.6875 0 L 4.6875 -32.75 L 11.515625 -32.75 L 12.71875 -28.5625 L 13.21875 -28.5625 C 14.207031 -30.144531 15.578125 -31.34375 17.328125 -32.15625 C 19.078125 -32.96875 21.066406 -33.375 23.296875 -33.375 C 27.097656 -33.375 29.984375 -32.34375 31.953125 -30.28125 C 33.929688 -28.21875 34.921875 -25.242188 34.921875 -21.359375 Z M 34.921875 0 "/></g></g><g transform="translate(219.770939, 148.454824)"><g/></g></g><g fill="#cb6ce6" fill-opacity="1"><g transform="translate(235.356876, 148.454824)"><g><path d="M 33.1875 -32.75 L 33.1875 -28.21875 L 28.0625 -26.890625 C 29 -25.429688 29.46875 -23.789062 29.46875 -21.96875 C 29.46875 -18.457031 28.242188 -15.71875 25.796875 -13.75 C 23.347656 -11.789062 19.945312 -10.8125 15.59375 -10.8125 L 13.96875 -10.90625 L 12.65625 -11.046875 C 11.738281 -10.335938 11.28125 -9.554688 11.28125 -8.703125 C 11.28125 -7.410156 12.921875 -6.765625 16.203125 -6.765625 L 21.765625 -6.765625 C 25.359375 -6.765625 28.097656 -5.992188 29.984375 -4.453125 C 31.867188 -2.910156 32.8125 -0.644531 32.8125 2.34375 C 32.8125 6.175781 31.210938 9.144531 28.015625 11.25 C 24.828125 13.363281 20.242188 14.421875 14.265625 14.421875 C 9.691406 14.421875 6.195312 13.625 3.78125 12.03125 C 1.375 10.4375 0.171875 8.203125 0.171875 5.328125 C 0.171875 3.359375 0.785156 1.707031 2.015625 0.375 C 3.253906 -0.945312 5.0625 -1.894531 7.4375 -2.46875 C 6.519531 -2.851562 5.71875 -3.488281 5.03125 -4.375 C 4.351562 -5.269531 4.015625 -6.210938 4.015625 -7.203125 C 4.015625 -8.453125 4.375 -9.492188 5.09375 -10.328125 C 5.820312 -11.160156 6.867188 -11.976562 8.234375 -12.78125 C 6.515625 -13.519531 5.148438 -14.707031 4.140625 -16.34375 C 3.140625 -17.988281 2.640625 -19.925781 2.640625 -22.15625 C 2.640625 -25.726562 3.800781 -28.488281 6.125 -30.4375 C 8.445312 -32.394531 11.765625 -33.375 16.078125 -33.375 C 17.003906 -33.375 18.09375 -33.289062 19.34375 -33.125 C 20.601562 -32.957031 21.410156 -32.832031 21.765625 -32.75 Z M 7.90625 4.625 C 7.90625 5.851562 8.492188 6.816406 9.671875 7.515625 C 10.859375 8.222656 12.519531 8.578125 14.65625 8.578125 C 17.851562 8.578125 20.359375 8.140625 22.171875 7.265625 C 23.992188 6.390625 24.90625 5.1875 24.90625 3.65625 C 24.90625 2.425781 24.367188 1.578125 23.296875 1.109375 C 22.222656 0.640625 20.5625 0.40625 18.3125 0.40625 L 13.6875 0.40625 C 12.039062 0.40625 10.664062 0.789062 9.5625 1.5625 C 8.457031 2.332031 7.90625 3.351562 7.90625 4.625 Z M 11.15625 -22.03125 C 11.15625 -20.25 11.5625 -18.84375 12.375 -17.8125 C 13.1875 -16.78125 14.421875 -16.265625 16.078125 -16.265625 C 17.765625 -16.265625 19 -16.78125 19.78125 -17.8125 C 20.5625 -18.84375 20.953125 -20.25 20.953125 -22.03125 C 20.953125 -25.976562 19.328125 -27.953125 16.078125 -27.953125 C 12.796875 -27.953125 11.15625 -25.976562 11.15625 -22.03125 Z M 11.15625 -22.03125 "/></g></g><g transform="translate(269.253359, 148.454824)"><g><path d="M 22.96875 -33.375 C 24.175781 -33.375 25.179688 -33.285156 25.984375 -33.109375 L 25.3125 -24.734375 C 24.59375 -24.921875 23.710938 -25.015625 22.671875 -25.015625 C 19.828125 -25.015625 17.609375 -24.28125 16.015625 -22.8125 C 14.421875 -21.351562 13.625 -19.304688 13.625 -16.671875 L 13.625 0 L 4.6875 0 L 4.6875 -32.75 L 11.453125 -32.75 L 12.78125 -27.25 L 13.21875 -27.25 C 14.226562 -29.082031 15.597656 -30.5625 17.328125 -31.6875 C 19.054688 -32.8125 20.9375 -33.375 22.96875 -33.375 Z M 22.96875 -33.375 "/></g></g><g transform="translate(296.499452, 148.454824)"><g><path d="M 25.484375 0 L 23.765625 -4.453125 L 23.53125 -4.453125 C 22.019531 -2.554688 20.46875 -1.238281 18.875 -0.5 C 17.289062 0.226562 15.21875 0.59375 12.65625 0.59375 C 9.507812 0.59375 7.03125 -0.304688 5.21875 -2.109375 C 3.414062 -3.910156 2.515625 -6.46875 2.515625 -9.78125 C 2.515625 -13.257812 3.726562 -15.820312 6.15625 -17.46875 C 8.59375 -19.125 12.265625 -20.039062 17.171875 -20.21875 L 22.859375 -20.390625 L 22.859375 -21.828125 C 22.859375 -25.148438 21.15625 -26.8125 17.75 -26.8125 C 15.132812 -26.8125 12.0625 -26.019531 8.53125 -24.4375 L 5.5625 -30.46875 C 9.332031 -32.4375 13.515625 -33.421875 18.109375 -33.421875 C 22.503906 -33.421875 25.875 -32.460938 28.21875 -30.546875 C 30.5625 -28.640625 31.734375 -25.734375 31.734375 -21.828125 L 31.734375 0 Z M 22.859375 -15.171875 L 19.390625 -15.0625 C 16.796875 -14.976562 14.863281 -14.503906 13.59375 -13.640625 C 12.320312 -12.785156 11.6875 -11.484375 11.6875 -9.734375 C 11.6875 -7.210938 13.132812 -5.953125 16.03125 -5.953125 C 18.09375 -5.953125 19.742188 -6.546875 20.984375 -7.734375 C 22.234375 -8.921875 22.859375 -10.503906 22.859375 -12.484375 Z M 22.859375 -15.171875 "/></g></g><g transform="translate(332.739685, 148.454824)"><g><path d="M 34.921875 0 L 25.984375 0 L 25.984375 -19.125 C 25.984375 -21.488281 25.5625 -23.257812 24.71875 -24.4375 C 23.882812 -25.625 22.550781 -26.21875 20.71875 -26.21875 C 18.21875 -26.21875 16.410156 -25.382812 15.296875 -23.71875 C 14.179688 -22.050781 13.625 -19.28125 13.625 -15.40625 L 13.625 0 L 4.6875 0 L 4.6875 -32.75 L 11.515625 -32.75 L 12.71875 -28.5625 L 13.21875 -28.5625 C 14.207031 -30.144531 15.578125 -31.34375 17.328125 -32.15625 C 19.078125 -32.96875 21.066406 -33.375 23.296875 -33.375 C 27.097656 -33.375 29.984375 -32.34375 31.953125 -30.28125 C 33.929688 -28.21875 34.921875 -25.242188 34.921875 -21.359375 Z M 34.921875 0 "/></g></g><g transform="translate(372.173277, 148.454824)"><g><path d="M 15.0625 0.59375 C 11.207031 0.59375 8.179688 -0.898438 5.984375 -3.890625 C 3.796875 -6.878906 2.703125 -11.019531 2.703125 -16.3125 C 2.703125 -21.6875 3.816406 -25.875 6.046875 -28.875 C 8.285156 -31.875 11.367188 -33.375 15.296875 -33.375 C 19.410156 -33.375 22.554688 -31.769531 24.734375 -28.5625 L 25.015625 -28.5625 C 24.566406 -31.007812 24.34375 -33.1875 24.34375 -35.09375 L 24.34375 -45.59375 L 33.3125 -45.59375 L 33.3125 0 L 26.453125 0 L 24.734375 -4.25 L 24.34375 -4.25 C 22.3125 -1.019531 19.21875 0.59375 15.0625 0.59375 Z M 18.1875 -6.53125 C 20.476562 -6.53125 22.15625 -7.191406 23.21875 -8.515625 C 24.28125 -9.847656 24.863281 -12.109375 24.96875 -15.296875 L 24.96875 -16.265625 C 24.96875 -19.773438 24.421875 -22.289062 23.328125 -23.8125 C 22.242188 -25.34375 20.484375 -26.109375 18.046875 -26.109375 C 16.054688 -26.109375 14.507812 -25.257812 13.40625 -23.5625 C 12.300781 -21.875 11.75 -19.421875 11.75 -16.203125 C 11.75 -12.984375 12.304688 -10.566406 13.421875 -8.953125 C 14.535156 -7.335938 16.125 -6.53125 18.1875 -6.53125 Z M 18.1875 -6.53125 "/></g></g></g><g fill="#000000" fill-opacity="1"><g transform="translate(410.142025, 148.454824)"><g/></g></g><g fill="#5271ff" fill-opacity="1"><g transform="translate(425.727962, 148.454824)"><g><path d="M 17.984375 0.59375 C 7.796875 0.59375 2.703125 -5.003906 2.703125 -16.203125 C 2.703125 -21.765625 4.085938 -26.015625 6.859375 -28.953125 C 9.628906 -31.898438 13.601562 -33.375 18.78125 -33.375 C 22.570312 -33.375 25.96875 -32.628906 28.96875 -31.140625 L 26.34375 -24.234375 C 24.9375 -24.796875 23.625 -25.253906 22.40625 -25.609375 C 21.195312 -25.972656 19.988281 -26.15625 18.78125 -26.15625 C 14.132812 -26.15625 11.8125 -22.859375 11.8125 -16.265625 C 11.8125 -9.859375 14.132812 -6.65625 18.78125 -6.65625 C 20.5 -6.65625 22.085938 -6.882812 23.546875 -7.34375 C 25.015625 -7.800781 26.484375 -8.519531 27.953125 -9.5 L 27.953125 -1.84375 C 26.503906 -0.925781 25.039062 -0.289062 23.5625 0.0625 C 22.09375 0.414062 20.234375 0.59375 17.984375 0.59375 Z M 17.984375 0.59375 "/></g></g><g transform="translate(456.57757, 148.454824)"><g><path d="M 34.921875 0 L 25.984375 0 L 25.984375 -19.125 C 25.984375 -23.851562 24.226562 -26.21875 20.71875 -26.21875 C 18.21875 -26.21875 16.410156 -25.367188 15.296875 -23.671875 C 14.179688 -21.972656 13.625 -19.21875 13.625 -15.40625 L 13.625 0 L 4.6875 0 L 4.6875 -45.59375 L 13.625 -45.59375 L 13.625 -36.296875 C 13.625 -35.578125 13.554688 -33.878906 13.421875 -31.203125 L 13.21875 -28.5625 L 13.6875 -28.5625 C 15.675781 -31.769531 18.835938 -33.375 23.171875 -33.375 C 27.023438 -33.375 29.945312 -32.335938 31.9375 -30.265625 C 33.925781 -28.191406 34.921875 -25.222656 34.921875 -21.359375 Z M 34.921875 0 "/></g></g><g transform="translate(496.011162, 148.454824)"><g><path d="M 4.3125 -41.21875 C 4.3125 -44.132812 5.929688 -45.59375 9.171875 -45.59375 C 12.410156 -45.59375 14.03125 -44.132812 14.03125 -41.21875 C 14.03125 -39.832031 13.625 -38.753906 12.8125 -37.984375 C 12.007812 -37.210938 10.796875 -36.828125 9.171875 -36.828125 C 5.929688 -36.828125 4.3125 -38.289062 4.3125 -41.21875 Z M 13.625 0 L 4.6875 0 L 4.6875 -32.75 L 13.625 -32.75 Z M 13.625 0 "/></g></g><g transform="translate(514.321708, 148.454824)"><g><path d="M 18.25 -27.015625 C 16.351562 -27.015625 14.867188 -26.410156 13.796875 -25.203125 C 12.722656 -24.003906 12.109375 -22.300781 11.953125 -20.09375 L 24.5 -20.09375 C 24.457031 -22.300781 23.878906 -24.003906 22.765625 -25.203125 C 21.648438 -26.410156 20.144531 -27.015625 18.25 -27.015625 Z M 19.515625 0.59375 C 14.242188 0.59375 10.125 -0.859375 7.15625 -3.765625 C 4.1875 -6.679688 2.703125 -10.804688 2.703125 -16.140625 C 2.703125 -21.628906 4.070312 -25.875 6.8125 -28.875 C 9.550781 -31.875 13.34375 -33.375 18.1875 -33.375 C 22.820312 -33.375 26.425781 -32.050781 29 -29.40625 C 31.582031 -26.769531 32.875 -23.128906 32.875 -18.484375 L 32.875 -14.15625 L 11.75 -14.15625 C 11.84375 -11.613281 12.59375 -9.628906 14 -8.203125 C 15.40625 -6.773438 17.378906 -6.0625 19.921875 -6.0625 C 21.890625 -6.0625 23.753906 -6.265625 25.515625 -6.671875 C 27.273438 -7.085938 29.113281 -7.742188 31.03125 -8.640625 L 31.03125 -1.734375 C 29.46875 -0.953125 27.796875 -0.367188 26.015625 0.015625 C 24.234375 0.398438 22.066406 0.59375 19.515625 0.59375 Z M 19.515625 0.59375 "/></g></g><g transform="translate(549.770925, 148.454824)"><g><path d="M 34.921875 0 L 25.984375 0 L 25.984375 -19.125 C 25.984375 -21.488281 25.5625 -23.257812 24.71875 -24.4375 C 23.882812 -25.625 22.550781 -26.21875 20.71875 -26.21875 C 18.21875 -26.21875 16.410156 -25.382812 15.296875 -23.71875 C 14.179688 -22.050781 13.625 -19.28125 13.625 -15.40625 L 13.625 0 L 4.6875 0 L 4.6875 -32.75 L 11.515625 -32.75 L 12.71875 -28.5625 L 13.21875 -28.5625 C 14.207031 -30.144531 15.578125 -31.34375 17.328125 -32.15625 C 19.078125 -32.96875 21.066406 -33.375 23.296875 -33.375 C 27.097656 -33.375 29.984375 -32.34375 31.953125 -30.28125 C 33.929688 -28.21875 34.921875 -25.242188 34.921875 -21.359375 Z M 34.921875 0 "/></g></g></g><g fill="#5271ff" fill-opacity="1"><g transform="translate(589.204517, 148.454824)"><g/></g></g><g fill="#000000" fill-opacity="1"><g transform="translate(253.044664, 265.43608)"><g><path d="M 15.890625 -15.6875 L 15.890625 -13.515625 L 13.4375 -12.875 C 13.882812 -12.175781 14.109375 -11.390625 14.109375 -10.515625 C 14.109375 -8.835938 13.519531 -7.523438 12.34375 -6.578125 C 11.175781 -5.640625 9.550781 -5.171875 7.46875 -5.171875 L 6.6875 -5.21875 L 6.0625 -5.296875 C 5.625 -4.953125 5.40625 -4.578125 5.40625 -4.171875 C 5.40625 -3.546875 6.191406 -3.234375 7.765625 -3.234375 L 10.421875 -3.234375 C 12.140625 -3.234375 13.453125 -2.863281 14.359375 -2.125 C 15.265625 -1.394531 15.71875 -0.3125 15.71875 1.125 C 15.71875 2.957031 14.953125 4.378906 13.421875 5.390625 C 11.890625 6.398438 9.691406 6.90625 6.828125 6.90625 C 4.640625 6.90625 2.96875 6.519531 1.8125 5.75 C 0.65625 4.988281 0.078125 3.921875 0.078125 2.546875 C 0.078125 1.609375 0.375 0.820312 0.96875 0.1875 C 1.5625 -0.445312 2.425781 -0.898438 3.5625 -1.171875 C 3.125 -1.359375 2.738281 -1.664062 2.40625 -2.09375 C 2.082031 -2.519531 1.921875 -2.972656 1.921875 -3.453125 C 1.921875 -4.046875 2.09375 -4.539062 2.4375 -4.9375 C 2.78125 -5.34375 3.28125 -5.738281 3.9375 -6.125 C 3.113281 -6.476562 2.460938 -7.046875 1.984375 -7.828125 C 1.503906 -8.609375 1.265625 -9.535156 1.265625 -10.609375 C 1.265625 -12.316406 1.820312 -13.640625 2.9375 -14.578125 C 4.050781 -15.515625 5.640625 -15.984375 7.703125 -15.984375 C 8.140625 -15.984375 8.660156 -15.941406 9.265625 -15.859375 C 9.867188 -15.773438 10.253906 -15.71875 10.421875 -15.6875 Z M 3.78125 2.21875 C 3.78125 2.800781 4.0625 3.257812 4.625 3.59375 C 5.195312 3.9375 5.992188 4.109375 7.015625 4.109375 C 8.546875 4.109375 9.742188 3.894531 10.609375 3.46875 C 11.484375 3.050781 11.921875 2.476562 11.921875 1.75 C 11.921875 1.164062 11.660156 0.757812 11.140625 0.53125 C 10.628906 0.3125 9.835938 0.203125 8.765625 0.203125 L 6.546875 0.203125 C 5.765625 0.203125 5.109375 0.382812 4.578125 0.75 C 4.046875 1.125 3.78125 1.613281 3.78125 2.21875 Z M 5.34375 -10.546875 C 5.34375 -9.703125 5.535156 -9.03125 5.921875 -8.53125 C 6.316406 -8.03125 6.910156 -7.78125 7.703125 -7.78125 C 8.503906 -7.78125 9.09375 -8.03125 9.46875 -8.53125 C 9.84375 -9.03125 10.03125 -9.703125 10.03125 -10.546875 C 10.03125 -12.441406 9.253906 -13.390625 7.703125 -13.390625 C 6.128906 -13.390625 5.34375 -12.441406 5.34375 -10.546875 Z M 5.34375 -10.546875 "/></g></g></g><g fill="#000000" fill-opacity="1"><g transform="translate(269.279343, 265.43608)"><g><path d="M 11 -15.984375 C 11.582031 -15.984375 12.0625 -15.941406 12.4375 -15.859375 L 12.125 -11.84375 C 11.78125 -11.9375 11.359375 -11.984375 10.859375 -11.984375 C 9.492188 -11.984375 8.429688 -11.628906 7.671875 -10.921875 C 6.910156 -10.222656 6.53125 -9.242188 6.53125 -7.984375 L 6.53125 0 L 2.25 0 L 2.25 -15.6875 L 5.484375 -15.6875 L 6.125 -13.046875 L 6.328125 -13.046875 C 6.816406 -13.929688 7.472656 -14.640625 8.296875 -15.171875 C 9.128906 -15.710938 10.03125 -15.984375 11 -15.984375 Z M 11 -15.984375 "/></g></g></g><g fill="#000000" fill-opacity="1"><g transform="translate(282.328822, 265.43608)"><g><path d="M 5.65625 -7.875 C 5.65625 -6.320312 5.910156 -5.144531 6.421875 -4.34375 C 6.929688 -3.550781 7.757812 -3.15625 8.90625 -3.15625 C 10.050781 -3.15625 10.875 -3.550781 11.375 -4.34375 C 11.875 -5.132812 12.125 -6.3125 12.125 -7.875 C 12.125 -9.425781 11.867188 -10.585938 11.359375 -11.359375 C 10.859375 -12.140625 10.03125 -12.53125 8.875 -12.53125 C 7.738281 -12.53125 6.914062 -12.144531 6.40625 -11.375 C 5.90625 -10.601562 5.65625 -9.4375 5.65625 -7.875 Z M 16.5 -7.875 C 16.5 -5.320312 15.820312 -3.320312 14.46875 -1.875 C 13.125 -0.4375 11.253906 0.28125 8.859375 0.28125 C 7.347656 0.28125 6.015625 -0.046875 4.859375 -0.703125 C 3.710938 -1.367188 2.832031 -2.316406 2.21875 -3.546875 C 1.601562 -4.785156 1.296875 -6.226562 1.296875 -7.875 C 1.296875 -10.4375 1.960938 -12.425781 3.296875 -13.84375 C 4.628906 -15.269531 6.507812 -15.984375 8.9375 -15.984375 C 10.445312 -15.984375 11.773438 -15.65625 12.921875 -15 C 14.066406 -14.34375 14.945312 -13.398438 15.5625 -12.171875 C 16.1875 -10.953125 16.5 -9.519531 16.5 -7.875 Z M 16.5 -7.875 "/></g></g></g><g fill="#000000" fill-opacity="1"><g transform="translate(300.121015, 265.43608)"><g><path d="M 13.359375 0 L 12.78125 -2 L 12.5625 -2 C 12.101562 -1.269531 11.453125 -0.707031 10.609375 -0.3125 C 9.765625 0.0820312 8.804688 0.28125 7.734375 0.28125 C 5.890625 0.28125 4.5 -0.210938 3.5625 -1.203125 C 2.625 -2.191406 2.15625 -3.609375 2.15625 -5.453125 L 2.15625 -15.6875 L 6.4375 -15.6875 L 6.4375 -6.53125 C 6.4375 -5.394531 6.632812 -4.539062 7.03125 -3.96875 C 7.4375 -3.40625 8.082031 -3.125 8.96875 -3.125 C 10.164062 -3.125 11.03125 -3.523438 11.5625 -4.328125 C 12.09375 -5.128906 12.359375 -6.457031 12.359375 -8.3125 L 12.359375 -15.6875 L 16.640625 -15.6875 L 16.640625 0 Z M 13.359375 0 "/></g></g></g><g fill="#000000" fill-opacity="1"><g transform="translate(319.007681, 265.43608)"><g><path d="M 10.859375 0.28125 C 9.015625 0.28125 7.570312 -0.382812 6.53125 -1.71875 L 6.296875 -1.71875 C 6.453125 -0.414062 6.53125 0.335938 6.53125 0.546875 L 6.53125 6.90625 L 2.25 6.90625 L 2.25 -15.6875 L 5.71875 -15.6875 L 6.328125 -13.65625 L 6.53125 -13.65625 C 7.53125 -15.207031 9.007812 -15.984375 10.96875 -15.984375 C 12.820312 -15.984375 14.269531 -15.265625 15.3125 -13.828125 C 16.363281 -12.398438 16.890625 -10.414062 16.890625 -7.875 C 16.890625 -6.195312 16.644531 -4.738281 16.15625 -3.5 C 15.664062 -2.269531 14.96875 -1.332031 14.0625 -0.6875 C 13.15625 -0.0390625 12.085938 0.28125 10.859375 0.28125 Z M 9.59375 -12.5625 C 8.539062 -12.5625 7.769531 -12.234375 7.28125 -11.578125 C 6.789062 -10.929688 6.539062 -9.859375 6.53125 -8.359375 L 6.53125 -7.90625 C 6.53125 -6.21875 6.78125 -5.007812 7.28125 -4.28125 C 7.78125 -3.550781 8.570312 -3.1875 9.65625 -3.1875 C 11.570312 -3.1875 12.53125 -4.765625 12.53125 -7.921875 C 12.53125 -9.472656 12.289062 -10.632812 11.8125 -11.40625 C 11.34375 -12.175781 10.601562 -12.5625 9.59375 -12.5625 Z M 9.59375 -12.5625 "/></g></g></g><g fill="#000000" fill-opacity="1"><g transform="translate(337.192761, 265.43608)"><g><path d="M 8.734375 -12.9375 C 7.828125 -12.9375 7.117188 -12.644531 6.609375 -12.0625 C 6.097656 -11.488281 5.800781 -10.675781 5.71875 -9.625 L 11.734375 -9.625 C 11.710938 -10.675781 11.4375 -11.488281 10.90625 -12.0625 C 10.375 -12.644531 9.648438 -12.9375 8.734375 -12.9375 Z M 9.34375 0.28125 C 6.820312 0.28125 4.847656 -0.414062 3.421875 -1.8125 C 2.003906 -3.207031 1.296875 -5.179688 1.296875 -7.734375 C 1.296875 -10.359375 1.953125 -12.390625 3.265625 -13.828125 C 4.578125 -15.265625 6.394531 -15.984375 8.71875 -15.984375 C 10.925781 -15.984375 12.644531 -15.347656 13.875 -14.078125 C 15.113281 -12.816406 15.734375 -11.078125 15.734375 -8.859375 L 15.734375 -6.78125 L 5.625 -6.78125 C 5.675781 -5.5625 6.035156 -4.609375 6.703125 -3.921875 C 7.378906 -3.242188 8.328125 -2.90625 9.546875 -2.90625 C 10.484375 -2.90625 11.375 -3.003906 12.21875 -3.203125 C 13.0625 -3.398438 13.941406 -3.710938 14.859375 -4.140625 L 14.859375 -0.828125 C 14.109375 -0.453125 13.304688 -0.175781 12.453125 0 C 11.609375 0.1875 10.570312 0.28125 9.34375 0.28125 Z M 9.34375 0.28125 "/></g></g></g><g fill="#000000" fill-opacity="1"><g transform="translate(354.171116, 265.43608)"><g/></g></g><g fill="#000000" fill-opacity="1"><g transform="translate(361.635979, 265.43608)"><g><path d="M 16.71875 0 L 12.4375 0 L 12.4375 -9.15625 C 12.4375 -10.289062 12.234375 -11.140625 11.828125 -11.703125 C 11.429688 -12.273438 10.796875 -12.5625 9.921875 -12.5625 C 8.722656 -12.5625 7.859375 -12.160156 7.328125 -11.359375 C 6.796875 -10.554688 6.53125 -9.226562 6.53125 -7.375 L 6.53125 0 L 2.25 0 L 2.25 -15.6875 L 5.515625 -15.6875 L 6.09375 -13.6875 L 6.328125 -13.6875 C 6.804688 -14.4375 7.460938 -15.003906 8.296875 -15.390625 C 9.140625 -15.785156 10.09375 -15.984375 11.15625 -15.984375 C 12.976562 -15.984375 14.359375 -15.488281 15.296875 -14.5 C 16.242188 -13.507812 16.71875 -12.085938 16.71875 -10.234375 Z M 16.71875 0 "/></g></g></g><g fill="#000000" fill-opacity="1"><g transform="translate(380.522645, 265.43608)"><g><path d="M 5.65625 -7.875 C 5.65625 -6.320312 5.910156 -5.144531 6.421875 -4.34375 C 6.929688 -3.550781 7.757812 -3.15625 8.90625 -3.15625 C 10.050781 -3.15625 10.875 -3.550781 11.375 -4.34375 C 11.875 -5.132812 12.125 -6.3125 12.125 -7.875 C 12.125 -9.425781 11.867188 -10.585938 11.359375 -11.359375 C 10.859375 -12.140625 10.03125 -12.53125 8.875 -12.53125 C 7.738281 -12.53125 6.914062 -12.144531 6.40625 -11.375 C 5.90625 -10.601562 5.65625 -9.4375 5.65625 -7.875 Z M 16.5 -7.875 C 16.5 -5.320312 15.820312 -3.320312 14.46875 -1.875 C 13.125 -0.4375 11.253906 0.28125 8.859375 0.28125 C 7.347656 0.28125 6.015625 -0.046875 4.859375 -0.703125 C 3.710938 -1.367188 2.832031 -2.316406 2.21875 -3.546875 C 1.601562 -4.785156 1.296875 -6.226562 1.296875 -7.875 C 1.296875 -10.4375 1.960938 -12.425781 3.296875 -13.84375 C 4.628906 -15.269531 6.507812 -15.984375 8.9375 -15.984375 C 10.445312 -15.984375 11.773438 -15.65625 12.921875 -15 C 14.066406 -14.34375 14.945312 -13.398438 15.5625 -12.171875 C 16.1875 -10.953125 16.5 -9.519531 16.5 -7.875 Z M 16.5 -7.875 "/></g></g></g><g fill="#000000" fill-opacity="1"><g transform="translate(398.314838, 265.43608)"><g><path d="M 16.296875 0 L 12.015625 0 L 12.015625 -9.15625 C 12.015625 -10.289062 11.820312 -11.140625 11.4375 -11.703125 C 11.0625 -12.273438 10.46875 -12.5625 9.65625 -12.5625 C 8.5625 -12.5625 7.765625 -12.15625 7.265625 -11.34375 C 6.773438 -10.539062 6.53125 -9.21875 6.53125 -7.375 L 6.53125 0 L 2.25 0 L 2.25 -15.6875 L 5.515625 -15.6875 L 6.09375 -13.6875 L 6.328125 -13.6875 C 6.742188 -14.40625 7.347656 -14.96875 8.140625 -15.375 C 8.941406 -15.78125 9.859375 -15.984375 10.890625 -15.984375 C 13.234375 -15.984375 14.820312 -15.21875 15.65625 -13.6875 L 16.03125 -13.6875 C 16.457031 -14.414062 17.078125 -14.976562 17.890625 -15.375 C 18.710938 -15.78125 19.640625 -15.984375 20.671875 -15.984375 C 22.441406 -15.984375 23.78125 -15.523438 24.6875 -14.609375 C 25.601562 -13.703125 26.0625 -12.242188 26.0625 -10.234375 L 26.0625 0 L 21.78125 0 L 21.78125 -9.15625 C 21.78125 -10.289062 21.585938 -11.140625 21.203125 -11.703125 C 20.828125 -12.273438 20.234375 -12.5625 19.421875 -12.5625 C 18.367188 -12.5625 17.582031 -12.1875 17.0625 -11.4375 C 16.550781 -10.6875 16.296875 -9.5 16.296875 -7.875 Z M 16.296875 0 "/></g></g></g><g fill="#000000" fill-opacity="1"><g transform="translate(426.532598, 265.43608)"><g><path d="M 2.0625 -19.734375 C 2.0625 -21.128906 2.835938 -21.828125 4.390625 -21.828125 C 5.941406 -21.828125 6.71875 -21.128906 6.71875 -19.734375 C 6.71875 -19.078125 6.523438 -18.5625 6.140625 -18.1875 C 5.753906 -17.820312 5.171875 -17.640625 4.390625 -17.640625 C 2.835938 -17.640625 2.0625 -18.335938 2.0625 -19.734375 Z M 6.53125 0 L 2.25 0 L 2.25 -15.6875 L 6.53125 -15.6875 Z M 6.53125 0 "/></g></g></g><g fill="#000000" fill-opacity="1"><g transform="translate(435.302423, 265.43608)"><g><path d="M 16.71875 0 L 12.4375 0 L 12.4375 -9.15625 C 12.4375 -10.289062 12.234375 -11.140625 11.828125 -11.703125 C 11.429688 -12.273438 10.796875 -12.5625 9.921875 -12.5625 C 8.722656 -12.5625 7.859375 -12.160156 7.328125 -11.359375 C 6.796875 -10.554688 6.53125 -9.226562 6.53125 -7.375 L 6.53125 0 L 2.25 0 L 2.25 -15.6875 L 5.515625 -15.6875 L 6.09375 -13.6875 L 6.328125 -13.6875 C 6.804688 -14.4375 7.460938 -15.003906 8.296875 -15.390625 C 9.140625 -15.785156 10.09375 -15.984375 11.15625 -15.984375 C 12.976562 -15.984375 14.359375 -15.488281 15.296875 -14.5 C 16.242188 -13.507812 16.71875 -12.085938 16.71875 -10.234375 Z M 16.71875 0 "/></g></g></g><g fill="#000000" fill-opacity="1"><g transform="translate(454.189079, 265.43608)"><g><path d="M 12.203125 0 L 11.375 -2.125 L 11.265625 -2.125 C 10.546875 -1.21875 9.804688 -0.585938 9.046875 -0.234375 C 8.285156 0.109375 7.289062 0.28125 6.0625 0.28125 C 4.550781 0.28125 3.363281 -0.144531 2.5 -1 C 1.632812 -1.863281 1.203125 -3.09375 1.203125 -4.6875 C 1.203125 -6.351562 1.785156 -7.582031 2.953125 -8.375 C 4.117188 -9.164062 5.875 -9.601562 8.21875 -9.6875 L 10.9375 -9.765625 L 10.9375 -10.453125 C 10.9375 -12.046875 10.125 -12.84375 8.5 -12.84375 C 7.25 -12.84375 5.773438 -12.460938 4.078125 -11.703125 L 2.671875 -14.59375 C 4.472656 -15.539062 6.472656 -16.015625 8.671875 -16.015625 C 10.773438 -16.015625 12.382812 -15.554688 13.5 -14.640625 C 14.625 -13.722656 15.1875 -12.328125 15.1875 -10.453125 L 15.1875 0 Z M 10.9375 -7.265625 L 9.28125 -7.21875 C 8.039062 -7.175781 7.113281 -6.945312 6.5 -6.53125 C 5.894531 -6.125 5.59375 -5.5 5.59375 -4.65625 C 5.59375 -3.445312 6.285156 -2.84375 7.671875 -2.84375 C 8.660156 -2.84375 9.453125 -3.128906 10.046875 -3.703125 C 10.640625 -4.273438 10.9375 -5.035156 10.9375 -5.984375 Z M 10.9375 -7.265625 "/></g></g></g><g fill="#000000" fill-opacity="1"><g transform="translate(471.546285, 265.43608)"><g><path d="M 6.53125 0 L 2.25 0 L 2.25 -21.828125 L 6.53125 -21.828125 Z M 6.53125 0 "/></g></g></g><g fill="#7ed957" fill-opacity="1"><g transform="translate(106.408457, 25.466544)"><g><path d="M 5.796875 0.21875 C 4.316406 0.21875 3.148438 -0.351562 2.296875 -1.5 C 1.453125 -2.65625 1.03125 -4.25 1.03125 -6.28125 C 1.03125 -8.351562 1.460938 -9.96875 2.328125 -11.125 C 3.191406 -12.28125 4.378906 -12.859375 5.890625 -12.859375 C 7.472656 -12.859375 8.6875 -12.238281 9.53125 -11 L 9.640625 -11 C 9.460938 -11.9375 9.375 -12.773438 9.375 -13.515625 L 9.375 -17.5625 L 12.828125 -17.5625 L 12.828125 0 L 10.1875 0 L 9.53125 -1.640625 L 9.375 -1.640625 C 8.59375 -0.398438 7.398438 0.21875 5.796875 0.21875 Z M 7 -2.515625 C 7.882812 -2.515625 8.53125 -2.769531 8.9375 -3.28125 C 9.351562 -3.789062 9.578125 -4.660156 9.609375 -5.890625 L 9.609375 -6.265625 C 9.609375 -7.617188 9.398438 -8.585938 8.984375 -9.171875 C 8.566406 -9.753906 7.890625 -10.046875 6.953125 -10.046875 C 6.179688 -10.046875 5.582031 -9.722656 5.15625 -9.078125 C 4.738281 -8.429688 4.53125 -7.484375 4.53125 -6.234375 C 4.53125 -4.992188 4.742188 -4.0625 5.171875 -3.4375 C 5.597656 -2.820312 6.207031 -2.515625 7 -2.515625 Z M 7 -2.515625 "/></g></g></g><g fill="#7ed957" fill-opacity="1"><g transform="translate(121.032358, 25.466544)"><g><path d="M 7.03125 -10.40625 C 6.300781 -10.40625 5.726562 -10.171875 5.3125 -9.703125 C 4.894531 -9.242188 4.660156 -8.585938 4.609375 -7.734375 L 9.4375 -7.734375 C 9.414062 -8.585938 9.191406 -9.242188 8.765625 -9.703125 C 8.335938 -10.171875 7.757812 -10.40625 7.03125 -10.40625 Z M 7.515625 0.21875 C 5.484375 0.21875 3.894531 -0.335938 2.75 -1.453125 C 1.601562 -2.578125 1.03125 -4.164062 1.03125 -6.21875 C 1.03125 -8.332031 1.554688 -9.96875 2.609375 -11.125 C 3.671875 -12.28125 5.132812 -12.859375 7 -12.859375 C 8.789062 -12.859375 10.179688 -12.347656 11.171875 -11.328125 C 12.160156 -10.316406 12.65625 -8.914062 12.65625 -7.125 L 12.65625 -5.453125 L 4.53125 -5.453125 C 4.5625 -4.472656 4.847656 -3.707031 5.390625 -3.15625 C 5.929688 -2.601562 6.691406 -2.328125 7.671875 -2.328125 C 8.429688 -2.328125 9.148438 -2.40625 9.828125 -2.5625 C 10.503906 -2.726562 11.210938 -2.984375 11.953125 -3.328125 L 11.953125 -0.671875 C 11.347656 -0.367188 10.703125 -0.144531 10.015625 0 C 9.335938 0.144531 8.503906 0.21875 7.515625 0.21875 Z M 5.046875 -14 L 5.046875 -14.3125 C 6.335938 -15.8125 7.21875 -16.941406 7.6875 -17.703125 L 11.546875 -17.703125 L 11.546875 -17.46875 C 11.160156 -17.070312 10.492188 -16.488281 9.546875 -15.71875 C 8.609375 -14.945312 7.867188 -14.375 7.328125 -14 Z M 5.046875 -14 "/></g></g></g><g fill="#7ed957" fill-opacity="1"><g transform="translate(134.685846, 25.466544)"><g><path d="M 7.125 -2.515625 C 7.71875 -2.515625 8.4375 -2.644531 9.28125 -2.90625 L 9.28125 -0.34375 C 8.425781 0.03125 7.375 0.21875 6.125 0.21875 C 4.75 0.21875 3.742188 -0.125 3.109375 -0.8125 C 2.484375 -1.507812 2.171875 -2.554688 2.171875 -3.953125 L 2.171875 -10.03125 L 0.53125 -10.03125 L 0.53125 -11.484375 L 2.421875 -12.640625 L 3.421875 -15.296875 L 5.625 -15.296875 L 5.625 -12.609375 L 9.15625 -12.609375 L 9.15625 -10.03125 L 5.625 -10.03125 L 5.625 -3.953125 C 5.625 -3.460938 5.757812 -3.097656 6.03125 -2.859375 C 6.300781 -2.628906 6.664062 -2.515625 7.125 -2.515625 Z M 7.125 -2.515625 "/></g></g></g><g fill="#7ed957" fill-opacity="1"><g transform="translate(144.71721, 25.466544)"><g><path d="M 7.03125 -10.40625 C 6.300781 -10.40625 5.726562 -10.171875 5.3125 -9.703125 C 4.894531 -9.242188 4.660156 -8.585938 4.609375 -7.734375 L 9.4375 -7.734375 C 9.414062 -8.585938 9.191406 -9.242188 8.765625 -9.703125 C 8.335938 -10.171875 7.757812 -10.40625 7.03125 -10.40625 Z M 7.515625 0.21875 C 5.484375 0.21875 3.894531 -0.335938 2.75 -1.453125 C 1.601562 -2.578125 1.03125 -4.164062 1.03125 -6.21875 C 1.03125 -8.332031 1.554688 -9.96875 2.609375 -11.125 C 3.671875 -12.28125 5.132812 -12.859375 7 -12.859375 C 8.789062 -12.859375 10.179688 -12.347656 11.171875 -11.328125 C 12.160156 -10.316406 12.65625 -8.914062 12.65625 -7.125 L 12.65625 -5.453125 L 4.53125 -5.453125 C 4.5625 -4.472656 4.847656 -3.707031 5.390625 -3.15625 C 5.929688 -2.601562 6.691406 -2.328125 7.671875 -2.328125 C 8.429688 -2.328125 9.148438 -2.40625 9.828125 -2.5625 C 10.503906 -2.726562 11.210938 -2.984375 11.953125 -3.328125 L 11.953125 -0.671875 C 11.347656 -0.367188 10.703125 -0.144531 10.015625 0 C 9.335938 0.144531 8.503906 0.21875 7.515625 0.21875 Z M 7.515625 0.21875 "/></g></g></g><g fill="#7ed957" fill-opacity="1"><g transform="translate(158.370697, 25.466544)"><g><path d="M 8.84375 -12.859375 C 9.3125 -12.859375 9.703125 -12.820312 10.015625 -12.75 L 9.75 -9.53125 C 9.46875 -9.601562 9.128906 -9.640625 8.734375 -9.640625 C 7.640625 -9.640625 6.785156 -9.351562 6.171875 -8.78125 C 5.554688 -8.21875 5.25 -7.429688 5.25 -6.421875 L 5.25 0 L 1.8125 0 L 1.8125 -12.609375 L 4.40625 -12.609375 L 4.921875 -10.5 L 5.09375 -10.5 C 5.476562 -11.207031 6.003906 -11.773438 6.671875 -12.203125 C 7.335938 -12.640625 8.0625 -12.859375 8.84375 -12.859375 Z M 8.84375 -12.859375 "/></g></g></g><g fill="#7ed957" fill-opacity="1"><g transform="translate(168.8647, 25.466544)"><g><path d="M 13.09375 0 L 9.65625 0 L 9.65625 -7.375 C 9.65625 -8.28125 9.503906 -8.957031 9.203125 -9.40625 C 8.898438 -9.863281 8.421875 -10.09375 7.765625 -10.09375 C 6.878906 -10.09375 6.238281 -9.769531 5.84375 -9.125 C 5.445312 -8.476562 5.25 -7.414062 5.25 -5.9375 L 5.25 0 L 1.8125 0 L 1.8125 -12.609375 L 4.4375 -12.609375 L 4.890625 -11 L 5.09375 -11 C 5.425781 -11.582031 5.910156 -12.035156 6.546875 -12.359375 C 7.191406 -12.691406 7.925781 -12.859375 8.75 -12.859375 C 10.644531 -12.859375 11.925781 -12.238281 12.59375 -11 L 12.890625 -11 C 13.234375 -11.582031 13.734375 -12.035156 14.390625 -12.359375 C 15.046875 -12.691406 15.789062 -12.859375 16.625 -12.859375 C 18.050781 -12.859375 19.128906 -12.488281 19.859375 -11.75 C 20.597656 -11.019531 20.96875 -9.84375 20.96875 -8.21875 L 20.96875 0 L 17.515625 0 L 17.515625 -7.375 C 17.515625 -8.28125 17.359375 -8.957031 17.046875 -9.40625 C 16.742188 -9.863281 16.265625 -10.09375 15.609375 -10.09375 C 14.773438 -10.09375 14.144531 -9.789062 13.71875 -9.1875 C 13.300781 -8.59375 13.09375 -7.640625 13.09375 -6.328125 Z M 13.09375 0 "/></g></g></g><g fill="#7ed957" fill-opacity="1"><g transform="translate(191.556571, 25.466544)"><g><path d="M 1.65625 -15.875 C 1.65625 -17 2.28125 -17.5625 3.53125 -17.5625 C 4.78125 -17.5625 5.40625 -17 5.40625 -15.875 C 5.40625 -15.34375 5.25 -14.925781 4.9375 -14.625 C 4.625 -14.332031 4.15625 -14.1875 3.53125 -14.1875 C 2.28125 -14.1875 1.65625 -14.75 1.65625 -15.875 Z M 5.25 0 L 1.8125 0 L 1.8125 -12.609375 L 5.25 -12.609375 Z M 5.25 0 "/></g></g></g><g fill="#7ed957" fill-opacity="1"><g transform="translate(198.608992, 25.466544)"><g><path d="M 13.453125 0 L 10.015625 0 L 10.015625 -7.375 C 10.015625 -8.28125 9.847656 -8.957031 9.515625 -9.40625 C 9.191406 -9.863281 8.679688 -10.09375 7.984375 -10.09375 C 7.015625 -10.09375 6.316406 -9.769531 5.890625 -9.125 C 5.460938 -8.488281 5.25 -7.425781 5.25 -5.9375 L 5.25 0 L 1.8125 0 L 1.8125 -12.609375 L 4.4375 -12.609375 L 4.890625 -11 L 5.09375 -11 C 5.476562 -11.613281 6.003906 -12.078125 6.671875 -12.390625 C 7.347656 -12.703125 8.113281 -12.859375 8.96875 -12.859375 C 10.4375 -12.859375 11.550781 -12.457031 12.3125 -11.65625 C 13.070312 -10.863281 13.453125 -9.71875 13.453125 -8.21875 Z M 13.453125 0 "/></g></g></g><g fill="#7ed957" fill-opacity="1"><g transform="translate(213.797086, 25.466544)"><g><path d="M 9.8125 0 L 9.15625 -1.71875 L 9.0625 -1.71875 C 8.476562 -0.988281 7.878906 -0.484375 7.265625 -0.203125 C 6.660156 0.078125 5.863281 0.21875 4.875 0.21875 C 3.664062 0.21875 2.710938 -0.125 2.015625 -0.8125 C 1.316406 -1.5 0.96875 -2.484375 0.96875 -3.765625 C 0.96875 -5.109375 1.4375 -6.097656 2.375 -6.734375 C 3.3125 -7.367188 4.722656 -7.71875 6.609375 -7.78125 L 8.796875 -7.859375 L 8.796875 -8.40625 C 8.796875 -9.6875 8.144531 -10.328125 6.84375 -10.328125 C 5.832031 -10.328125 4.644531 -10.019531 3.28125 -9.40625 L 2.140625 -11.734375 C 3.597656 -12.492188 5.207031 -12.875 6.96875 -12.875 C 8.664062 -12.875 9.960938 -12.503906 10.859375 -11.765625 C 11.765625 -11.023438 12.21875 -9.90625 12.21875 -8.40625 L 12.21875 0 Z M 8.796875 -5.84375 L 7.46875 -5.796875 C 6.46875 -5.765625 5.722656 -5.582031 5.234375 -5.25 C 4.742188 -4.925781 4.5 -4.425781 4.5 -3.75 C 4.5 -2.78125 5.054688 -2.296875 6.171875 -2.296875 C 6.972656 -2.296875 7.609375 -2.523438 8.078125 -2.984375 C 8.554688 -3.441406 8.796875 -4.050781 8.796875 -4.8125 Z M 8.796875 -5.84375 "/></g></g></g><g fill="#7ed957" fill-opacity="1"><g transform="translate(227.755238, 25.466544)"><g><path d="M 13.453125 0 L 10.015625 0 L 10.015625 -7.375 C 10.015625 -8.28125 9.847656 -8.957031 9.515625 -9.40625 C 9.191406 -9.863281 8.679688 -10.09375 7.984375 -10.09375 C 7.015625 -10.09375 6.316406 -9.769531 5.890625 -9.125 C 5.460938 -8.488281 5.25 -7.425781 5.25 -5.9375 L 5.25 0 L 1.8125 0 L 1.8125 -12.609375 L 4.4375 -12.609375 L 4.890625 -11 L 5.09375 -11 C 5.476562 -11.613281 6.003906 -12.078125 6.671875 -12.390625 C 7.347656 -12.703125 8.113281 -12.859375 8.96875 -12.859375 C 10.4375 -12.859375 11.550781 -12.457031 12.3125 -11.65625 C 13.070312 -10.863281 13.453125 -9.71875 13.453125 -8.21875 Z M 13.453125 0 "/></g></g></g><g fill="#7ed957" fill-opacity="1"><g transform="translate(242.943332, 25.466544)"><g><path d="M 7.125 -2.515625 C 7.71875 -2.515625 8.4375 -2.644531 9.28125 -2.90625 L 9.28125 -0.34375 C 8.425781 0.03125 7.375 0.21875 6.125 0.21875 C 4.75 0.21875 3.742188 -0.125 3.109375 -0.8125 C 2.484375 -1.507812 2.171875 -2.554688 2.171875 -3.953125 L 2.171875 -10.03125 L 0.53125 -10.03125 L 0.53125 -11.484375 L 2.421875 -12.640625 L 3.421875 -15.296875 L 5.625 -15.296875 L 5.625 -12.609375 L 9.15625 -12.609375 L 9.15625 -10.03125 L 5.625 -10.03125 L 5.625 -3.953125 C 5.625 -3.460938 5.757812 -3.097656 6.03125 -2.859375 C 6.300781 -2.628906 6.664062 -2.515625 7.125 -2.515625 Z M 7.125 -2.515625 "/></g></g></g><g fill="#7ed957" fill-opacity="1"><g transform="translate(160.302986, 57.716543)"><g/></g></g><g fill="#7ed957" fill-opacity="1"><g transform="translate(166.302986, 57.716543)"><g><path d="M 0.921875 -6.328125 C 0.921875 -8.328125 1.210938 -10.191406 1.796875 -11.921875 C 2.378906 -13.660156 3.222656 -15.1875 4.328125 -16.5 L 7.140625 -16.5 C 6.078125 -15.039062 5.273438 -13.441406 4.734375 -11.703125 C 4.191406 -9.972656 3.921875 -8.191406 3.921875 -6.359375 C 3.921875 -4.515625 4.195312 -2.734375 4.75 -1.015625 C 5.300781 0.703125 6.09375 2.257812 7.125 3.65625 L 4.328125 3.65625 C 3.210938 2.375 2.363281 0.878906 1.78125 -0.828125 C 1.207031 -2.535156 0.921875 -4.367188 0.921875 -6.328125 Z M 0.921875 -6.328125 "/></g></g></g><g fill="#7ed957" fill-opacity="1"><g transform="translate(174.133995, 57.716543)"><g><path d="M 15.765625 -8.40625 C 15.765625 -5.6875 14.988281 -3.601562 13.4375 -2.15625 C 11.894531 -0.71875 9.664062 0 6.75 0 L 2.078125 0 L 2.078125 -16.5 L 7.25 -16.5 C 9.945312 -16.5 12.039062 -15.785156 13.53125 -14.359375 C 15.019531 -12.941406 15.765625 -10.957031 15.765625 -8.40625 Z M 12.125 -8.3125 C 12.125 -11.851562 10.5625 -13.625 7.4375 -13.625 L 5.578125 -13.625 L 5.578125 -2.890625 L 7.078125 -2.890625 C 10.441406 -2.890625 12.125 -4.695312 12.125 -8.3125 Z M 12.125 -8.3125 "/></g></g></g><g fill="#7ed957" fill-opacity="1"><g transform="translate(191.240348, 57.716543)"><g><path d="M 6.90625 -6.328125 C 6.90625 -4.347656 6.613281 -2.503906 6.03125 -0.796875 C 5.445312 0.910156 4.609375 2.394531 3.515625 3.65625 L 0.703125 3.65625 C 1.722656 2.269531 2.507812 0.71875 3.0625 -1 C 3.625 -2.71875 3.90625 -4.503906 3.90625 -6.359375 C 3.90625 -8.191406 3.632812 -9.972656 3.09375 -11.703125 C 2.550781 -13.441406 1.75 -15.039062 0.6875 -16.5 L 3.515625 -16.5 C 4.617188 -15.175781 5.457031 -13.644531 6.03125 -11.90625 C 6.613281 -10.164062 6.90625 -8.304688 6.90625 -6.328125 Z M 6.90625 -6.328125 "/></g></g></g><g clip-path="url(#e8446ba08e)"><path fill="#000000" d="M 253.261719 97.382812 C 253.261719 90.046875 259.320312 84.074219 266.761719 84.074219 L 307.101562 84.074219 C 314.125 84.074219 320.667969 80.054688 323.761719 73.839844 C 323.976562 73.410156 324.417969 73.136719 324.90625 73.136719 C 325.390625 73.136719 325.832031 73.410156 326.046875 73.839844 C 329.144531 80.054688 335.679688 84.074219 342.707031 84.074219 L 383.046875 84.074219 C 390.488281 84.074219 396.546875 90.046875 396.546875 97.382812 C 396.546875 98.078125 395.976562 98.640625 395.273438 98.640625 C 394.570312 98.640625 394 98.078125 394 97.382812 C 394 91.429688 389.085938 86.582031 383.046875 86.582031 L 342.707031 86.582031 C 335.5 86.582031 328.742188 82.867188 324.90625 76.949219 C 321.066406 82.867188 314.308594 86.582031 307.101562 86.582031 L 266.761719 86.582031 C 260.722656 86.582031 255.808594 91.429688 255.808594 97.382812 C 255.808594 98.078125 255.238281 98.640625 254.535156 98.640625 C 253.832031 98.640625 253.261719 98.078125 253.261719 97.382812 " fill-opacity="1" fill-rule="nonzero"/></g><g fill="#5271ff" fill-opacity="1"><g transform="translate(483.882707, 66.930914)"><g><path d="M 20.203125 0 L 14.828125 0 L 6.15625 -15.09375 L 6.03125 -15.09375 C 6.195312 -12.425781 6.28125 -10.523438 6.28125 -9.390625 L 6.28125 0 L 2.515625 0 L 2.515625 -19.9375 L 7.84375 -19.9375 L 16.5 -5 L 16.59375 -5 C 16.457031 -7.59375 16.390625 -9.425781 16.390625 -10.5 L 16.390625 -19.9375 L 20.203125 -19.9375 Z M 20.203125 0 "/></g></g></g><g fill="#5271ff" fill-opacity="1"><g transform="translate(506.595565, 66.930914)"><g><path d="M 5.5 -7.65625 C 5.5 -6.144531 5.742188 -5 6.234375 -4.21875 C 6.734375 -3.445312 7.539062 -3.0625 8.65625 -3.0625 C 9.769531 -3.0625 10.566406 -3.445312 11.046875 -4.21875 C 11.535156 -4.988281 11.78125 -6.132812 11.78125 -7.65625 C 11.78125 -9.164062 11.535156 -10.296875 11.046875 -11.046875 C 10.554688 -11.804688 9.753906 -12.1875 8.640625 -12.1875 C 7.523438 -12.1875 6.722656 -11.8125 6.234375 -11.0625 C 5.742188 -10.3125 5.5 -9.175781 5.5 -7.65625 Z M 16.046875 -7.65625 C 16.046875 -5.164062 15.390625 -3.222656 14.078125 -1.828125 C 12.765625 -0.429688 10.941406 0.265625 8.609375 0.265625 C 7.140625 0.265625 5.847656 -0.0507812 4.734375 -0.6875 C 3.617188 -1.332031 2.757812 -2.253906 2.15625 -3.453125 C 1.550781 -4.648438 1.25 -6.050781 1.25 -7.65625 C 1.25 -10.144531 1.898438 -12.078125 3.203125 -13.453125 C 4.503906 -14.835938 6.332031 -15.53125 8.6875 -15.53125 C 10.15625 -15.53125 11.445312 -15.210938 12.5625 -14.578125 C 13.675781 -13.941406 14.535156 -13.023438 15.140625 -11.828125 C 15.742188 -10.640625 16.046875 -9.25 16.046875 -7.65625 Z M 16.046875 -7.65625 "/></g></g></g><g fill="#5271ff" fill-opacity="1"><g transform="translate(523.892806, 66.930914)"><g><path d="M 15.84375 0 L 11.671875 0 L 11.671875 -8.90625 C 11.671875 -10.007812 11.488281 -10.832031 11.125 -11.375 C 10.757812 -11.925781 10.179688 -12.203125 9.390625 -12.203125 C 8.328125 -12.203125 7.550781 -11.8125 7.0625 -11.03125 C 6.582031 -10.25 6.34375 -8.960938 6.34375 -7.171875 L 6.34375 0 L 2.1875 0 L 2.1875 -15.25 L 5.359375 -15.25 L 5.921875 -13.296875 L 6.15625 -13.296875 C 6.5625 -13.992188 7.148438 -14.539062 7.921875 -14.9375 C 8.691406 -15.332031 9.578125 -15.53125 10.578125 -15.53125 C 12.867188 -15.53125 14.414062 -14.785156 15.21875 -13.296875 L 15.59375 -13.296875 C 16 -14.003906 16.597656 -14.550781 17.390625 -14.9375 C 18.191406 -15.332031 19.09375 -15.53125 20.09375 -15.53125 C 21.820312 -15.53125 23.128906 -15.085938 24.015625 -14.203125 C 24.898438 -13.316406 25.34375 -11.894531 25.34375 -9.9375 L 25.34375 0 L 21.171875 0 L 21.171875 -8.90625 C 21.171875 -10.007812 20.984375 -10.832031 20.609375 -11.375 C 20.242188 -11.925781 19.664062 -12.203125 18.875 -12.203125 C 17.863281 -12.203125 17.101562 -11.835938 16.59375 -11.109375 C 16.09375 -10.390625 15.84375 -9.238281 15.84375 -7.65625 Z M 15.84375 0 "/></g></g></g><g clip-path="url(#bcb07f21de)"><path fill="#000000" d="M 549.148438 165.371094 C 549.148438 184.363281 533.699219 199.820312 514.71875 199.820312 L 411.875 199.820312 C 393.960938 199.820312 377.285156 210.21875 369.394531 226.308594 C 368.851562 227.417969 367.722656 228.125 366.480469 228.125 C 365.246094 228.125 364.117188 227.417969 363.570312 226.308594 C 355.675781 210.21875 339.003906 199.820312 321.09375 199.820312 L 218.242188 199.820312 C 199.261719 199.820312 183.820312 184.363281 183.820312 165.371094 C 183.820312 163.578125 185.273438 162.117188 187.0625 162.117188 C 188.855469 162.117188 190.308594 163.578125 190.308594 165.371094 C 190.308594 180.785156 202.839844 193.324219 218.242188 193.324219 L 321.09375 193.324219 C 339.464844 193.324219 356.699219 202.945312 366.480469 218.261719 C 376.269531 202.945312 393.496094 193.324219 411.875 193.324219 L 514.71875 193.324219 C 530.121094 193.324219 542.652344 180.785156 542.652344 165.371094 C 542.652344 163.578125 544.105469 162.117188 545.898438 162.117188 C 547.695312 162.117188 549.148438 163.578125 549.148438 165.371094 " fill-opacity="1" fill-rule="nonzero"/></g><g clip-path="url(#7bcfdef69c)"><path fill="#000000" d="M 451.324219 98.210938 C 451.324219 91.953125 456.34375 86.859375 462.515625 86.859375 L 495.945312 86.859375 C 501.769531 86.859375 507.191406 83.433594 509.753906 78.128906 C 509.933594 77.765625 510.300781 77.53125 510.703125 77.53125 C 511.105469 77.53125 511.472656 77.765625 511.648438 78.128906 C 514.214844 83.433594 519.632812 86.859375 525.457031 86.859375 L 558.890625 86.859375 C 565.0625 86.859375 570.082031 91.953125 570.082031 98.210938 C 570.082031 98.800781 569.609375 99.28125 569.027344 99.28125 C 568.441406 99.28125 567.972656 98.800781 567.972656 98.210938 C 567.972656 93.132812 563.898438 89 558.890625 89 L 525.457031 89 C 519.484375 89 513.882812 85.828125 510.703125 80.78125 C 507.519531 85.828125 501.921875 89 495.945312 89 L 462.515625 89 C 457.507812 89 453.433594 93.132812 453.433594 98.210938 C 453.433594 98.800781 452.960938 99.28125 452.378906 99.28125 C 451.792969 99.28125 451.324219 98.800781 451.324219 98.210938 " fill-opacity="1" fill-rule="nonzero"/></g><g fill="#cb6ce6" fill-opacity="1"><g transform="translate(289.522635, 23.801344)"><g><path d="M 12.90625 0 L 11.625 -4.15625 L 5.265625 -4.15625 L 4 0 L 0 0 L 6.171875 -17.546875 L 10.703125 -17.546875 L 16.890625 0 Z M 10.75 -7.265625 C 9.570312 -11.035156 8.910156 -13.164062 8.765625 -13.65625 C 8.617188 -14.15625 8.515625 -14.550781 8.453125 -14.84375 C 8.191406 -13.820312 7.4375 -11.296875 6.1875 -7.265625 Z M 10.75 -7.265625 "/></g></g></g><g fill="#cb6ce6" fill-opacity="1"><g transform="translate(306.404638, 23.801344)"><g><path d="M 6.140625 0.234375 C 4.578125 0.234375 3.34375 -0.375 2.4375 -1.59375 C 1.539062 -2.8125 1.09375 -4.5 1.09375 -6.65625 C 1.09375 -8.851562 1.550781 -10.5625 2.46875 -11.78125 C 3.382812 -13 4.640625 -13.609375 6.234375 -13.609375 C 7.921875 -13.609375 9.207031 -12.957031 10.09375 -11.65625 L 10.203125 -11.65625 C 10.023438 -12.65625 9.9375 -13.546875 9.9375 -14.328125 L 9.9375 -18.609375 L 13.59375 -18.609375 L 13.59375 0 L 10.796875 0 L 10.09375 -1.734375 L 9.9375 -1.734375 C 9.101562 -0.421875 7.835938 0.234375 6.140625 0.234375 Z M 7.421875 -2.671875 C 8.359375 -2.671875 9.039062 -2.941406 9.46875 -3.484375 C 9.90625 -4.023438 10.144531 -4.941406 10.1875 -6.234375 L 10.1875 -6.640625 C 10.1875 -8.066406 9.960938 -9.09375 9.515625 -9.71875 C 9.078125 -10.34375 8.359375 -10.65625 7.359375 -10.65625 C 6.546875 -10.65625 5.914062 -10.304688 5.46875 -9.609375 C 5.019531 -8.921875 4.796875 -7.921875 4.796875 -6.609375 C 4.796875 -5.296875 5.019531 -4.3125 5.46875 -3.65625 C 5.925781 -3 6.578125 -2.671875 7.421875 -2.671875 Z M 7.421875 -2.671875 "/></g></g></g><g fill="#cb6ce6" fill-opacity="1"><g transform="translate(321.888769, 23.801344)"><g><path d="M 0.84375 5.875 C -0.09375 5.875 -0.894531 5.773438 -1.5625 5.578125 L -1.5625 2.71875 C -1.007812 2.863281 -0.441406 2.9375 0.140625 2.9375 C 0.753906 2.9375 1.203125 2.765625 1.484375 2.421875 C 1.765625 2.078125 1.90625 1.570312 1.90625 0.90625 L 1.90625 -13.359375 L 5.5625 -13.359375 L 5.5625 1.453125 C 5.5625 2.867188 5.148438 3.957031 4.328125 4.71875 C 3.503906 5.488281 2.34375 5.875 0.84375 5.875 Z M 1.75 -16.828125 C 1.75 -18.015625 2.410156 -18.609375 3.734375 -18.609375 C 5.066406 -18.609375 5.734375 -18.015625 5.734375 -16.828125 C 5.734375 -16.253906 5.566406 -15.8125 5.234375 -15.5 C 4.898438 -15.1875 4.398438 -15.03125 3.734375 -15.03125 C 2.410156 -15.03125 1.75 -15.628906 1.75 -16.828125 Z M 1.75 -16.828125 "/></g></g></g><g fill="#cb6ce6" fill-opacity="1"><g transform="translate(329.356038, 23.801344)"><g><path d="M 7.453125 -11.015625 C 6.671875 -11.015625 6.0625 -10.769531 5.625 -10.28125 C 5.1875 -9.789062 4.9375 -9.097656 4.875 -8.203125 L 10 -8.203125 C 9.976562 -9.097656 9.738281 -9.789062 9.28125 -10.28125 C 8.832031 -10.769531 8.222656 -11.015625 7.453125 -11.015625 Z M 7.96875 0.234375 C 5.8125 0.234375 4.125 -0.359375 2.90625 -1.546875 C 1.695312 -2.734375 1.09375 -4.414062 1.09375 -6.59375 C 1.09375 -8.832031 1.648438 -10.5625 2.765625 -11.78125 C 3.890625 -13 5.441406 -13.609375 7.421875 -13.609375 C 9.304688 -13.609375 10.773438 -13.070312 11.828125 -12 C 12.878906 -10.925781 13.40625 -9.441406 13.40625 -7.546875 L 13.40625 -5.78125 L 4.796875 -5.78125 C 4.835938 -4.738281 5.144531 -3.925781 5.71875 -3.34375 C 6.289062 -2.757812 7.09375 -2.46875 8.125 -2.46875 C 8.9375 -2.46875 9.695312 -2.550781 10.40625 -2.71875 C 11.125 -2.894531 11.875 -3.164062 12.65625 -3.53125 L 12.65625 -0.703125 C 12.019531 -0.390625 11.335938 -0.15625 10.609375 0 C 9.890625 0.15625 9.007812 0.234375 7.96875 0.234375 Z M 7.96875 0.234375 "/></g></g></g><g fill="#cb6ce6" fill-opacity="1"><g transform="translate(343.812672, 23.801344)"><g><path d="M 7.34375 0.234375 C 3.175781 0.234375 1.09375 -2.046875 1.09375 -6.609375 C 1.09375 -8.878906 1.660156 -10.613281 2.796875 -11.8125 C 3.929688 -13.007812 5.550781 -13.609375 7.65625 -13.609375 C 9.207031 -13.609375 10.597656 -13.304688 11.828125 -12.703125 L 10.75 -9.890625 C 10.175781 -10.117188 9.640625 -10.304688 9.140625 -10.453125 C 8.648438 -10.597656 8.15625 -10.671875 7.65625 -10.671875 C 5.757812 -10.671875 4.8125 -9.328125 4.8125 -6.640625 C 4.8125 -4.023438 5.757812 -2.71875 7.65625 -2.71875 C 8.363281 -2.71875 9.015625 -2.8125 9.609375 -3 C 10.210938 -3.1875 10.8125 -3.476562 11.40625 -3.875 L 11.40625 -0.75 C 10.8125 -0.375 10.210938 -0.117188 9.609375 0.015625 C 9.015625 0.160156 8.257812 0.234375 7.34375 0.234375 Z M 7.34375 0.234375 "/></g></g></g><g fill="#cb6ce6" fill-opacity="1"><g transform="translate(356.393528, 23.801344)"><g><path d="M 7.546875 -2.671875 C 8.179688 -2.671875 8.945312 -2.804688 9.84375 -3.078125 L 9.84375 -0.375 C 8.925781 0.03125 7.804688 0.234375 6.484375 0.234375 C 5.023438 0.234375 3.960938 -0.128906 3.296875 -0.859375 C 2.640625 -1.597656 2.3125 -2.707031 2.3125 -4.1875 L 2.3125 -10.625 L 0.5625 -10.625 L 0.5625 -12.171875 L 2.578125 -13.390625 L 3.625 -16.21875 L 5.953125 -16.21875 L 5.953125 -13.359375 L 9.703125 -13.359375 L 9.703125 -10.625 L 5.953125 -10.625 L 5.953125 -4.1875 C 5.953125 -3.664062 6.097656 -3.28125 6.390625 -3.03125 C 6.679688 -2.789062 7.066406 -2.671875 7.546875 -2.671875 Z M 7.546875 -2.671875 "/></g></g></g><g fill="#cb6ce6" fill-opacity="1"><g transform="translate(367.014972, 23.801344)"><g><path d="M 1.75 -16.828125 C 1.75 -18.015625 2.410156 -18.609375 3.734375 -18.609375 C 5.066406 -18.609375 5.734375 -18.015625 5.734375 -16.828125 C 5.734375 -16.253906 5.566406 -15.8125 5.234375 -15.5 C 4.898438 -15.1875 4.398438 -15.03125 3.734375 -15.03125 C 2.410156 -15.03125 1.75 -15.628906 1.75 -16.828125 Z M 5.5625 0 L 1.90625 0 L 1.90625 -13.359375 L 5.5625 -13.359375 Z M 5.5625 0 "/></g></g></g><g fill="#cb6ce6" fill-opacity="1"><g transform="translate(374.482242, 23.801344)"><g><path d="M 9.296875 -10.625 L 6.140625 -10.625 L 6.140625 0 L 2.5 0 L 2.5 -10.625 L 0.484375 -10.625 L 0.484375 -12.390625 L 2.5 -13.359375 L 2.5 -14.34375 C 2.5 -15.863281 2.875 -16.972656 3.625 -17.671875 C 4.375 -18.378906 5.570312 -18.734375 7.21875 -18.734375 C 8.476562 -18.734375 9.597656 -18.546875 10.578125 -18.171875 L 9.640625 -15.5 C 8.910156 -15.726562 8.234375 -15.84375 7.609375 -15.84375 C 7.097656 -15.84375 6.722656 -15.6875 6.484375 -15.375 C 6.253906 -15.070312 6.140625 -14.679688 6.140625 -14.203125 L 6.140625 -13.359375 L 9.296875 -13.359375 Z M 9.296875 -10.625 "/></g></g></g><g fill="#cb6ce6" fill-opacity="1"><g transform="translate(308.530447, 57.551343)"><g><path d="M 0.984375 -6.703125 C 0.984375 -8.816406 1.289062 -10.789062 1.90625 -12.625 C 2.519531 -14.46875 3.410156 -16.085938 4.578125 -17.484375 L 7.5625 -17.484375 C 6.4375 -15.941406 5.585938 -14.25 5.015625 -12.40625 C 4.441406 -10.5625 4.15625 -8.671875 4.15625 -6.734375 C 4.15625 -4.773438 4.445312 -2.882812 5.03125 -1.0625 C 5.625 0.75 6.460938 2.394531 7.546875 3.875 L 4.578125 3.875 C 3.410156 2.519531 2.519531 0.9375 1.90625 -0.875 C 1.289062 -2.6875 0.984375 -4.628906 0.984375 -6.703125 Z M 0.984375 -6.703125 "/></g></g></g><g fill="#cb6ce6" fill-opacity="1"><g transform="translate(316.822103, 57.551343)"><g><path d="M 12.90625 0 L 11.625 -4.15625 L 5.265625 -4.15625 L 4 0 L 0 0 L 6.171875 -17.546875 L 10.703125 -17.546875 L 16.890625 0 Z M 10.75 -7.265625 C 9.570312 -11.035156 8.910156 -13.164062 8.765625 -13.65625 C 8.617188 -14.15625 8.515625 -14.550781 8.453125 -14.84375 C 8.191406 -13.820312 7.4375 -11.296875 6.1875 -7.265625 Z M 10.75 -7.265625 "/></g></g></g><g fill="#cb6ce6" fill-opacity="1"><g transform="translate(333.704106, 57.551343)"><g><path d="M 6.140625 0.234375 C 4.578125 0.234375 3.34375 -0.375 2.4375 -1.59375 C 1.539062 -2.8125 1.09375 -4.5 1.09375 -6.65625 C 1.09375 -8.851562 1.550781 -10.5625 2.46875 -11.78125 C 3.382812 -13 4.640625 -13.609375 6.234375 -13.609375 C 7.921875 -13.609375 9.207031 -12.957031 10.09375 -11.65625 L 10.203125 -11.65625 C 10.023438 -12.65625 9.9375 -13.546875 9.9375 -14.328125 L 9.9375 -18.609375 L 13.59375 -18.609375 L 13.59375 0 L 10.796875 0 L 10.09375 -1.734375 L 9.9375 -1.734375 C 9.101562 -0.421875 7.835938 0.234375 6.140625 0.234375 Z M 7.421875 -2.671875 C 8.359375 -2.671875 9.039062 -2.941406 9.46875 -3.484375 C 9.90625 -4.023438 10.144531 -4.941406 10.1875 -6.234375 L 10.1875 -6.640625 C 10.1875 -8.066406 9.960938 -9.09375 9.515625 -9.71875 C 9.078125 -10.34375 8.359375 -10.65625 7.359375 -10.65625 C 6.546875 -10.65625 5.914062 -10.304688 5.46875 -9.609375 C 5.019531 -8.921875 4.796875 -7.921875 4.796875 -6.609375 C 4.796875 -5.296875 5.019531 -4.3125 5.46875 -3.65625 C 5.925781 -3 6.578125 -2.671875 7.421875 -2.671875 Z M 7.421875 -2.671875 "/></g></g></g><g fill="#cb6ce6" fill-opacity="1"><g transform="translate(349.188236, 57.551343)"><g><path d="M 0.84375 5.875 C -0.09375 5.875 -0.894531 5.773438 -1.5625 5.578125 L -1.5625 2.71875 C -1.007812 2.863281 -0.441406 2.9375 0.140625 2.9375 C 0.753906 2.9375 1.203125 2.765625 1.484375 2.421875 C 1.765625 2.078125 1.90625 1.570312 1.90625 0.90625 L 1.90625 -13.359375 L 5.5625 -13.359375 L 5.5625 1.453125 C 5.5625 2.867188 5.148438 3.957031 4.328125 4.71875 C 3.503906 5.488281 2.34375 5.875 0.84375 5.875 Z M 1.75 -16.828125 C 1.75 -18.015625 2.410156 -18.609375 3.734375 -18.609375 C 5.066406 -18.609375 5.734375 -18.015625 5.734375 -16.828125 C 5.734375 -16.253906 5.566406 -15.8125 5.234375 -15.5 C 4.898438 -15.1875 4.398438 -15.03125 3.734375 -15.03125 C 2.410156 -15.03125 1.75 -15.628906 1.75 -16.828125 Z M 1.75 -16.828125 "/></g></g></g><g fill="#cb6ce6" fill-opacity="1"><g transform="translate(356.655506, 57.551343)"><g><path d="M 7.3125 -6.703125 C 7.3125 -4.609375 7.003906 -2.65625 6.390625 -0.84375 C 5.773438 0.957031 4.882812 2.53125 3.71875 3.875 L 0.75 3.875 C 1.820312 2.40625 2.65625 0.757812 3.25 -1.0625 C 3.84375 -2.882812 4.140625 -4.773438 4.140625 -6.734375 C 4.140625 -8.671875 3.851562 -10.5625 3.28125 -12.40625 C 2.707031 -14.25 1.859375 -15.941406 0.734375 -17.484375 L 3.71875 -17.484375 C 4.882812 -16.085938 5.773438 -14.460938 6.390625 -12.609375 C 7.003906 -10.765625 7.3125 -8.796875 7.3125 -6.703125 Z M 7.3125 -6.703125 "/></g></g></g></svg>