<svg xmlns="http://www.w3.org/2000/svg" xmlns:xlink="http://www.w3.org/1999/xlink" width="1024" zoomAndPan="magnify" viewBox="0 0 768 576" height="768" preserveAspectRatio="xMidYMid meet" version="1.0"><defs><g/><clipPath id="4fb03aa781"><path d="M 241 73.136719 L 334.578125 73.136719 L 334.578125 89.636719 L 241 89.636719 Z M 241 73.136719 " clip-rule="nonzero"/></clipPath><clipPath id="9fc7868be4"><path d="M 361 73.136719 L 513.757812 73.136719 L 513.757812 100.136719 L 361 100.136719 Z M 361 73.136719 " clip-rule="nonzero"/></clipPath><clipPath id="7829300299"><path d="M 279 162.355469 L 493 162.355469 L 493 200.605469 L 279 200.605469 Z M 279 162.355469 " clip-rule="nonzero"/></clipPath></defs><g clip-path="url(#4fb03aa781)"><path fill="#000000" d="M 241.304688 88.824219 C 241.304688 84.074219 245.226562 80.210938 250.050781 80.210938 L 276.179688 80.210938 C 280.726562 80.210938 284.964844 77.613281 286.96875 73.589844 C 287.109375 73.3125 287.394531 73.136719 287.710938 73.136719 C 288.023438 73.136719 288.3125 73.3125 288.449219 73.589844 C 290.457031 77.613281 294.691406 80.210938 299.242188 80.210938 L 325.371094 80.210938 C 330.191406 80.210938 334.117188 84.074219 334.117188 88.824219 C 334.117188 89.273438 333.746094 89.636719 333.292969 89.636719 C 332.835938 89.636719 332.46875 89.273438 332.46875 88.824219 C 332.46875 84.972656 329.285156 81.835938 325.371094 81.835938 L 299.242188 81.835938 C 294.574219 81.835938 290.195312 79.429688 287.710938 75.601562 C 285.222656 79.429688 280.847656 81.835938 276.179688 81.835938 L 250.050781 81.835938 C 246.136719 81.835938 242.953125 84.972656 242.953125 88.824219 C 242.953125 89.273438 242.582031 89.636719 242.128906 89.636719 C 241.671875 89.636719 241.304688 89.273438 241.304688 88.824219 " fill-opacity="1" fill-rule="nonzero"/></g><g fill="#7ed957" fill-opacity="1"><g transform="translate(249.899258, 148.454824)"><g><path d="M 40.25 -42.828125 L 40.25 -15.125 C 40.25 -11.957031 39.539062 -9.179688 38.125 -6.796875 C 36.707031 -4.410156 34.660156 -2.582031 31.984375 -1.3125 C 29.316406 -0.0390625 26.15625 0.59375 22.5 0.59375 C 16.988281 0.59375 12.707031 -0.816406 9.65625 -3.640625 C 6.613281 -6.460938 5.09375 -10.328125 5.09375 -15.234375 L 5.09375 -42.828125 L 14.15625 -42.828125 L 14.15625 -16.609375 C 14.15625 -13.304688 14.816406 -10.882812 16.140625 -9.34375 C 17.472656 -7.800781 19.671875 -7.03125 22.734375 -7.03125 C 25.703125 -7.03125 27.851562 -7.804688 29.1875 -9.359375 C 30.53125 -10.910156 31.203125 -13.347656 31.203125 -16.671875 L 31.203125 -42.828125 Z M 40.25 -42.828125 "/></g></g><g transform="translate(295.250818, 148.454824)"><g><path d="M 34.921875 0 L 25.984375 0 L 25.984375 -19.125 C 25.984375 -21.488281 25.5625 -23.257812 24.71875 -24.4375 C 23.882812 -25.625 22.550781 -26.21875 20.71875 -26.21875 C 18.21875 -26.21875 16.410156 -25.382812 15.296875 -23.71875 C 14.179688 -22.050781 13.625 -19.28125 13.625 -15.40625 L 13.625 0 L 4.6875 0 L 4.6875 -32.75 L 11.515625 -32.75 L 12.71875 -28.5625 L 13.21875 -28.5625 C 14.207031 -30.144531 15.578125 -31.34375 17.328125 -32.15625 C 19.078125 -32.96875 21.066406 -33.375 23.296875 -33.375 C 27.097656 -33.375 29.984375 -32.34375 31.953125 -30.28125 C 33.929688 -28.21875 34.921875 -25.242188 34.921875 -21.359375 Z M 34.921875 0 "/></g></g></g><g fill="#000000" fill-opacity="1"><g transform="translate(334.68441, 148.454824)"><g/></g></g><g fill="#5271ff" fill-opacity="1"><g transform="translate(350.270347, 148.454824)"><g><path d="M 17.984375 0.59375 C 7.796875 0.59375 2.703125 -5.003906 2.703125 -16.203125 C 2.703125 -21.765625 4.085938 -26.015625 6.859375 -28.953125 C 9.628906 -31.898438 13.601562 -33.375 18.78125 -33.375 C 22.570312 -33.375 25.96875 -32.628906 28.96875 -31.140625 L 26.34375 -24.234375 C 24.9375 -24.796875 23.625 -25.253906 22.40625 -25.609375 C 21.195312 -25.972656 19.988281 -26.15625 18.78125 -26.15625 C 14.132812 -26.15625 11.8125 -22.859375 11.8125 -16.265625 C 11.8125 -9.859375 14.132812 -6.65625 18.78125 -6.65625 C 20.5 -6.65625 22.085938 -6.882812 23.546875 -7.34375 C 25.015625 -7.800781 26.484375 -8.519531 27.953125 -9.5 L 27.953125 -1.84375 C 26.503906 -0.925781 25.039062 -0.289062 23.5625 0.0625 C 22.09375 0.414062 20.234375 0.59375 17.984375 0.59375 Z M 17.984375 0.59375 "/></g></g><g transform="translate(381.119955, 148.454824)"><g><path d="M 34.921875 0 L 25.984375 0 L 25.984375 -19.125 C 25.984375 -23.851562 24.226562 -26.21875 20.71875 -26.21875 C 18.21875 -26.21875 16.410156 -25.367188 15.296875 -23.671875 C 14.179688 -21.972656 13.625 -19.21875 13.625 -15.40625 L 13.625 0 L 4.6875 0 L 4.6875 -45.59375 L 13.625 -45.59375 L 13.625 -36.296875 C 13.625 -35.578125 13.554688 -33.878906 13.421875 -31.203125 L 13.21875 -28.5625 L 13.6875 -28.5625 C 15.675781 -31.769531 18.835938 -33.375 23.171875 -33.375 C 27.023438 -33.375 29.945312 -32.335938 31.9375 -30.265625 C 33.925781 -28.191406 34.921875 -25.222656 34.921875 -21.359375 Z M 34.921875 0 "/></g></g><g transform="translate(420.553547, 148.454824)"><g><path d="M 4.3125 -41.21875 C 4.3125 -44.132812 5.929688 -45.59375 9.171875 -45.59375 C 12.410156 -45.59375 14.03125 -44.132812 14.03125 -41.21875 C 14.03125 -39.832031 13.625 -38.753906 12.8125 -37.984375 C 12.007812 -37.210938 10.796875 -36.828125 9.171875 -36.828125 C 5.929688 -36.828125 4.3125 -38.289062 4.3125 -41.21875 Z M 13.625 0 L 4.6875 0 L 4.6875 -32.75 L 13.625 -32.75 Z M 13.625 0 "/></g></g><g transform="translate(438.864093, 148.454824)"><g><path d="M 18.25 -27.015625 C 16.351562 -27.015625 14.867188 -26.410156 13.796875 -25.203125 C 12.722656 -24.003906 12.109375 -22.300781 11.953125 -20.09375 L 24.5 -20.09375 C 24.457031 -22.300781 23.878906 -24.003906 22.765625 -25.203125 C 21.648438 -26.410156 20.144531 -27.015625 18.25 -27.015625 Z M 19.515625 0.59375 C 14.242188 0.59375 10.125 -0.859375 7.15625 -3.765625 C 4.1875 -6.679688 2.703125 -10.804688 2.703125 -16.140625 C 2.703125 -21.628906 4.070312 -25.875 6.8125 -28.875 C 9.550781 -31.875 13.34375 -33.375 18.1875 -33.375 C 22.820312 -33.375 26.425781 -32.050781 29 -29.40625 C 31.582031 -26.769531 32.875 -23.128906 32.875 -18.484375 L 32.875 -14.15625 L 11.75 -14.15625 C 11.84375 -11.613281 12.59375 -9.628906 14 -8.203125 C 15.40625 -6.773438 17.378906 -6.0625 19.921875 -6.0625 C 21.890625 -6.0625 23.753906 -6.265625 25.515625 -6.671875 C 27.273438 -7.085938 29.113281 -7.742188 31.03125 -8.640625 L 31.03125 -1.734375 C 29.46875 -0.953125 27.796875 -0.367188 26.015625 0.015625 C 24.234375 0.398438 22.066406 0.59375 19.515625 0.59375 Z M 19.515625 0.59375 "/></g></g><g transform="translate(474.313311, 148.454824)"><g><path d="M 34.921875 0 L 25.984375 0 L 25.984375 -19.125 C 25.984375 -21.488281 25.5625 -23.257812 24.71875 -24.4375 C 23.882812 -25.625 22.550781 -26.21875 20.71875 -26.21875 C 18.21875 -26.21875 16.410156 -25.382812 15.296875 -23.71875 C 14.179688 -22.050781 13.625 -19.28125 13.625 -15.40625 L 13.625 0 L 4.6875 0 L 4.6875 -32.75 L 11.515625 -32.75 L 12.71875 -28.5625 L 13.21875 -28.5625 C 14.207031 -30.144531 15.578125 -31.34375 17.328125 -32.15625 C 19.078125 -32.96875 21.066406 -33.375 23.296875 -33.375 C 27.097656 -33.375 29.984375 -32.34375 31.953125 -30.28125 C 33.929688 -28.21875 34.921875 -25.242188 34.921875 -21.359375 Z M 34.921875 0 "/></g></g></g><g fill="#000000" fill-opacity="1"><g transform="translate(272.619459, 241.666297)"><g><path d="M 15.890625 -15.6875 L 15.890625 -13.515625 L 13.4375 -12.875 C 13.882812 -12.175781 14.109375 -11.390625 14.109375 -10.515625 C 14.109375 -8.835938 13.519531 -7.523438 12.34375 -6.578125 C 11.175781 -5.640625 9.550781 -5.171875 7.46875 -5.171875 L 6.6875 -5.21875 L 6.0625 -5.296875 C 5.625 -4.953125 5.40625 -4.578125 5.40625 -4.171875 C 5.40625 -3.546875 6.191406 -3.234375 7.765625 -3.234375 L 10.421875 -3.234375 C 12.140625 -3.234375 13.453125 -2.863281 14.359375 -2.125 C 15.265625 -1.394531 15.71875 -0.3125 15.71875 1.125 C 15.71875 2.957031 14.953125 4.378906 13.421875 5.390625 C 11.890625 6.398438 9.691406 6.90625 6.828125 6.90625 C 4.640625 6.90625 2.96875 6.519531 1.8125 5.75 C 0.65625 4.988281 0.078125 3.921875 0.078125 2.546875 C 0.078125 1.609375 0.375 0.820312 0.96875 0.1875 C 1.5625 -0.445312 2.425781 -0.898438 3.5625 -1.171875 C 3.125 -1.359375 2.738281 -1.664062 2.40625 -2.09375 C 2.082031 -2.519531 1.921875 -2.972656 1.921875 -3.453125 C 1.921875 -4.046875 2.09375 -4.539062 2.4375 -4.9375 C 2.78125 -5.34375 3.28125 -5.738281 3.9375 -6.125 C 3.113281 -6.476562 2.460938 -7.046875 1.984375 -7.828125 C 1.503906 -8.609375 1.265625 -9.535156 1.265625 -10.609375 C 1.265625 -12.316406 1.820312 -13.640625 2.9375 -14.578125 C 4.050781 -15.515625 5.640625 -15.984375 7.703125 -15.984375 C 8.140625 -15.984375 8.660156 -15.941406 9.265625 -15.859375 C 9.867188 -15.773438 10.253906 -15.71875 10.421875 -15.6875 Z M 3.78125 2.21875 C 3.78125 2.800781 4.0625 3.257812 4.625 3.59375 C 5.195312 3.9375 5.992188 4.109375 7.015625 4.109375 C 8.546875 4.109375 9.742188 3.894531 10.609375 3.46875 C 11.484375 3.050781 11.921875 2.476562 11.921875 1.75 C 11.921875 1.164062 11.660156 0.757812 11.140625 0.53125 C 10.628906 0.3125 9.835938 0.203125 8.765625 0.203125 L 6.546875 0.203125 C 5.765625 0.203125 5.109375 0.382812 4.578125 0.75 C 4.046875 1.125 3.78125 1.613281 3.78125 2.21875 Z M 5.34375 -10.546875 C 5.34375 -9.703125 5.535156 -9.03125 5.921875 -8.53125 C 6.316406 -8.03125 6.910156 -7.78125 7.703125 -7.78125 C 8.503906 -7.78125 9.09375 -8.03125 9.46875 -8.53125 C 9.84375 -9.03125 10.03125 -9.703125 10.03125 -10.546875 C 10.03125 -12.441406 9.253906 -13.390625 7.703125 -13.390625 C 6.128906 -13.390625 5.34375 -12.441406 5.34375 -10.546875 Z M 5.34375 -10.546875 "/></g></g></g><g fill="#000000" fill-opacity="1"><g transform="translate(288.854138, 241.666297)"><g><path d="M 11 -15.984375 C 11.582031 -15.984375 12.0625 -15.941406 12.4375 -15.859375 L 12.125 -11.84375 C 11.78125 -11.9375 11.359375 -11.984375 10.859375 -11.984375 C 9.492188 -11.984375 8.429688 -11.628906 7.671875 -10.921875 C 6.910156 -10.222656 6.53125 -9.242188 6.53125 -7.984375 L 6.53125 0 L 2.25 0 L 2.25 -15.6875 L 5.484375 -15.6875 L 6.125 -13.046875 L 6.328125 -13.046875 C 6.816406 -13.929688 7.472656 -14.640625 8.296875 -15.171875 C 9.128906 -15.710938 10.03125 -15.984375 11 -15.984375 Z M 11 -15.984375 "/></g></g></g><g fill="#000000" fill-opacity="1"><g transform="translate(301.903617, 241.666297)"><g><path d="M 5.65625 -7.875 C 5.65625 -6.320312 5.910156 -5.144531 6.421875 -4.34375 C 6.929688 -3.550781 7.757812 -3.15625 8.90625 -3.15625 C 10.050781 -3.15625 10.875 -3.550781 11.375 -4.34375 C 11.875 -5.132812 12.125 -6.3125 12.125 -7.875 C 12.125 -9.425781 11.867188 -10.585938 11.359375 -11.359375 C 10.859375 -12.140625 10.03125 -12.53125 8.875 -12.53125 C 7.738281 -12.53125 6.914062 -12.144531 6.40625 -11.375 C 5.90625 -10.601562 5.65625 -9.4375 5.65625 -7.875 Z M 16.5 -7.875 C 16.5 -5.320312 15.820312 -3.320312 14.46875 -1.875 C 13.125 -0.4375 11.253906 0.28125 8.859375 0.28125 C 7.347656 0.28125 6.015625 -0.046875 4.859375 -0.703125 C 3.710938 -1.367188 2.832031 -2.316406 2.21875 -3.546875 C 1.601562 -4.785156 1.296875 -6.226562 1.296875 -7.875 C 1.296875 -10.4375 1.960938 -12.425781 3.296875 -13.84375 C 4.628906 -15.269531 6.507812 -15.984375 8.9375 -15.984375 C 10.445312 -15.984375 11.773438 -15.65625 12.921875 -15 C 14.066406 -14.34375 14.945312 -13.398438 15.5625 -12.171875 C 16.1875 -10.953125 16.5 -9.519531 16.5 -7.875 Z M 16.5 -7.875 "/></g></g></g><g fill="#000000" fill-opacity="1"><g transform="translate(319.69581, 241.666297)"><g><path d="M 13.359375 0 L 12.78125 -2 L 12.5625 -2 C 12.101562 -1.269531 11.453125 -0.707031 10.609375 -0.3125 C 9.765625 0.0820312 8.804688 0.28125 7.734375 0.28125 C 5.890625 0.28125 4.5 -0.210938 3.5625 -1.203125 C 2.625 -2.191406 2.15625 -3.609375 2.15625 -5.453125 L 2.15625 -15.6875 L 6.4375 -15.6875 L 6.4375 -6.53125 C 6.4375 -5.394531 6.632812 -4.539062 7.03125 -3.96875 C 7.4375 -3.40625 8.082031 -3.125 8.96875 -3.125 C 10.164062 -3.125 11.03125 -3.523438 11.5625 -4.328125 C 12.09375 -5.128906 12.359375 -6.457031 12.359375 -8.3125 L 12.359375 -15.6875 L 16.640625 -15.6875 L 16.640625 0 Z M 13.359375 0 "/></g></g></g><g fill="#000000" fill-opacity="1"><g transform="translate(338.582476, 241.666297)"><g><path d="M 10.859375 0.28125 C 9.015625 0.28125 7.570312 -0.382812 6.53125 -1.71875 L 6.296875 -1.71875 C 6.453125 -0.414062 6.53125 0.335938 6.53125 0.546875 L 6.53125 6.90625 L 2.25 6.90625 L 2.25 -15.6875 L 5.71875 -15.6875 L 6.328125 -13.65625 L 6.53125 -13.65625 C 7.53125 -15.207031 9.007812 -15.984375 10.96875 -15.984375 C 12.820312 -15.984375 14.269531 -15.265625 15.3125 -13.828125 C 16.363281 -12.398438 16.890625 -10.414062 16.890625 -7.875 C 16.890625 -6.195312 16.644531 -4.738281 16.15625 -3.5 C 15.664062 -2.269531 14.96875 -1.332031 14.0625 -0.6875 C 13.15625 -0.0390625 12.085938 0.28125 10.859375 0.28125 Z M 9.59375 -12.5625 C 8.539062 -12.5625 7.769531 -12.234375 7.28125 -11.578125 C 6.789062 -10.929688 6.539062 -9.859375 6.53125 -8.359375 L 6.53125 -7.90625 C 6.53125 -6.21875 6.78125 -5.007812 7.28125 -4.28125 C 7.78125 -3.550781 8.570312 -3.1875 9.65625 -3.1875 C 11.570312 -3.1875 12.53125 -4.765625 12.53125 -7.921875 C 12.53125 -9.472656 12.289062 -10.632812 11.8125 -11.40625 C 11.34375 -12.175781 10.601562 -12.5625 9.59375 -12.5625 Z M 9.59375 -12.5625 "/></g></g></g><g fill="#000000" fill-opacity="1"><g transform="translate(356.767556, 241.666297)"><g><path d="M 8.734375 -12.9375 C 7.828125 -12.9375 7.117188 -12.644531 6.609375 -12.0625 C 6.097656 -11.488281 5.800781 -10.675781 5.71875 -9.625 L 11.734375 -9.625 C 11.710938 -10.675781 11.4375 -11.488281 10.90625 -12.0625 C 10.375 -12.644531 9.648438 -12.9375 8.734375 -12.9375 Z M 9.34375 0.28125 C 6.820312 0.28125 4.847656 -0.414062 3.421875 -1.8125 C 2.003906 -3.207031 1.296875 -5.179688 1.296875 -7.734375 C 1.296875 -10.359375 1.953125 -12.390625 3.265625 -13.828125 C 4.578125 -15.265625 6.394531 -15.984375 8.71875 -15.984375 C 10.925781 -15.984375 12.644531 -15.347656 13.875 -14.078125 C 15.113281 -12.816406 15.734375 -11.078125 15.734375 -8.859375 L 15.734375 -6.78125 L 5.625 -6.78125 C 5.675781 -5.5625 6.035156 -4.609375 6.703125 -3.921875 C 7.378906 -3.242188 8.328125 -2.90625 9.546875 -2.90625 C 10.484375 -2.90625 11.375 -3.003906 12.21875 -3.203125 C 13.0625 -3.398438 13.941406 -3.710938 14.859375 -4.140625 L 14.859375 -0.828125 C 14.109375 -0.453125 13.304688 -0.175781 12.453125 0 C 11.609375 0.1875 10.570312 0.28125 9.34375 0.28125 Z M 9.34375 0.28125 "/></g></g></g><g fill="#000000" fill-opacity="1"><g transform="translate(373.745911, 241.666297)"><g/></g></g><g fill="#000000" fill-opacity="1"><g transform="translate(381.210774, 241.666297)"><g><path d="M 16.71875 0 L 12.4375 0 L 12.4375 -9.15625 C 12.4375 -10.289062 12.234375 -11.140625 11.828125 -11.703125 C 11.429688 -12.273438 10.796875 -12.5625 9.921875 -12.5625 C 8.722656 -12.5625 7.859375 -12.160156 7.328125 -11.359375 C 6.796875 -10.554688 6.53125 -9.226562 6.53125 -7.375 L 6.53125 0 L 2.25 0 L 2.25 -15.6875 L 5.515625 -15.6875 L 6.09375 -13.6875 L 6.328125 -13.6875 C 6.804688 -14.4375 7.460938 -15.003906 8.296875 -15.390625 C 9.140625 -15.785156 10.09375 -15.984375 11.15625 -15.984375 C 12.976562 -15.984375 14.359375 -15.488281 15.296875 -14.5 C 16.242188 -13.507812 16.71875 -12.085938 16.71875 -10.234375 Z M 16.71875 0 "/></g></g></g><g fill="#000000" fill-opacity="1"><g transform="translate(400.09744, 241.666297)"><g><path d="M 5.65625 -7.875 C 5.65625 -6.320312 5.910156 -5.144531 6.421875 -4.34375 C 6.929688 -3.550781 7.757812 -3.15625 8.90625 -3.15625 C 10.050781 -3.15625 10.875 -3.550781 11.375 -4.34375 C 11.875 -5.132812 12.125 -6.3125 12.125 -7.875 C 12.125 -9.425781 11.867188 -10.585938 11.359375 -11.359375 C 10.859375 -12.140625 10.03125 -12.53125 8.875 -12.53125 C 7.738281 -12.53125 6.914062 -12.144531 6.40625 -11.375 C 5.90625 -10.601562 5.65625 -9.4375 5.65625 -7.875 Z M 16.5 -7.875 C 16.5 -5.320312 15.820312 -3.320312 14.46875 -1.875 C 13.125 -0.4375 11.253906 0.28125 8.859375 0.28125 C 7.347656 0.28125 6.015625 -0.046875 4.859375 -0.703125 C 3.710938 -1.367188 2.832031 -2.316406 2.21875 -3.546875 C 1.601562 -4.785156 1.296875 -6.226562 1.296875 -7.875 C 1.296875 -10.4375 1.960938 -12.425781 3.296875 -13.84375 C 4.628906 -15.269531 6.507812 -15.984375 8.9375 -15.984375 C 10.445312 -15.984375 11.773438 -15.65625 12.921875 -15 C 14.066406 -14.34375 14.945312 -13.398438 15.5625 -12.171875 C 16.1875 -10.953125 16.5 -9.519531 16.5 -7.875 Z M 16.5 -7.875 "/></g></g></g><g fill="#000000" fill-opacity="1"><g transform="translate(417.889633, 241.666297)"><g><path d="M 16.296875 0 L 12.015625 0 L 12.015625 -9.15625 C 12.015625 -10.289062 11.820312 -11.140625 11.4375 -11.703125 C 11.0625 -12.273438 10.46875 -12.5625 9.65625 -12.5625 C 8.5625 -12.5625 7.765625 -12.15625 7.265625 -11.34375 C 6.773438 -10.539062 6.53125 -9.21875 6.53125 -7.375 L 6.53125 0 L 2.25 0 L 2.25 -15.6875 L 5.515625 -15.6875 L 6.09375 -13.6875 L 6.328125 -13.6875 C 6.742188 -14.40625 7.347656 -14.96875 8.140625 -15.375 C 8.941406 -15.78125 9.859375 -15.984375 10.890625 -15.984375 C 13.234375 -15.984375 14.820312 -15.21875 15.65625 -13.6875 L 16.03125 -13.6875 C 16.457031 -14.414062 17.078125 -14.976562 17.890625 -15.375 C 18.710938 -15.78125 19.640625 -15.984375 20.671875 -15.984375 C 22.441406 -15.984375 23.78125 -15.523438 24.6875 -14.609375 C 25.601562 -13.703125 26.0625 -12.242188 26.0625 -10.234375 L 26.0625 0 L 21.78125 0 L 21.78125 -9.15625 C 21.78125 -10.289062 21.585938 -11.140625 21.203125 -11.703125 C 20.828125 -12.273438 20.234375 -12.5625 19.421875 -12.5625 C 18.367188 -12.5625 17.582031 -12.1875 17.0625 -11.4375 C 16.550781 -10.6875 16.296875 -9.5 16.296875 -7.875 Z M 16.296875 0 "/></g></g></g><g fill="#000000" fill-opacity="1"><g transform="translate(446.107393, 241.666297)"><g><path d="M 2.0625 -19.734375 C 2.0625 -21.128906 2.835938 -21.828125 4.390625 -21.828125 C 5.941406 -21.828125 6.71875 -21.128906 6.71875 -19.734375 C 6.71875 -19.078125 6.523438 -18.5625 6.140625 -18.1875 C 5.753906 -17.820312 5.171875 -17.640625 4.390625 -17.640625 C 2.835938 -17.640625 2.0625 -18.335938 2.0625 -19.734375 Z M 6.53125 0 L 2.25 0 L 2.25 -15.6875 L 6.53125 -15.6875 Z M 6.53125 0 "/></g></g></g><g fill="#000000" fill-opacity="1"><g transform="translate(454.877219, 241.666297)"><g><path d="M 16.71875 0 L 12.4375 0 L 12.4375 -9.15625 C 12.4375 -10.289062 12.234375 -11.140625 11.828125 -11.703125 C 11.429688 -12.273438 10.796875 -12.5625 9.921875 -12.5625 C 8.722656 -12.5625 7.859375 -12.160156 7.328125 -11.359375 C 6.796875 -10.554688 6.53125 -9.226562 6.53125 -7.375 L 6.53125 0 L 2.25 0 L 2.25 -15.6875 L 5.515625 -15.6875 L 6.09375 -13.6875 L 6.328125 -13.6875 C 6.804688 -14.4375 7.460938 -15.003906 8.296875 -15.390625 C 9.140625 -15.785156 10.09375 -15.984375 11.15625 -15.984375 C 12.976562 -15.984375 14.359375 -15.488281 15.296875 -14.5 C 16.242188 -13.507812 16.71875 -12.085938 16.71875 -10.234375 Z M 16.71875 0 "/></g></g></g><g fill="#000000" fill-opacity="1"><g transform="translate(473.763875, 241.666297)"><g><path d="M 12.203125 0 L 11.375 -2.125 L 11.265625 -2.125 C 10.546875 -1.21875 9.804688 -0.585938 9.046875 -0.234375 C 8.285156 0.109375 7.289062 0.28125 6.0625 0.28125 C 4.550781 0.28125 3.363281 -0.144531 2.5 -1 C 1.632812 -1.863281 1.203125 -3.09375 1.203125 -4.6875 C 1.203125 -6.351562 1.785156 -7.582031 2.953125 -8.375 C 4.117188 -9.164062 5.875 -9.601562 8.21875 -9.6875 L 10.9375 -9.765625 L 10.9375 -10.453125 C 10.9375 -12.046875 10.125 -12.84375 8.5 -12.84375 C 7.25 -12.84375 5.773438 -12.460938 4.078125 -11.703125 L 2.671875 -14.59375 C 4.472656 -15.539062 6.472656 -16.015625 8.671875 -16.015625 C 10.773438 -16.015625 12.382812 -15.554688 13.5 -14.640625 C 14.625 -13.722656 15.1875 -12.328125 15.1875 -10.453125 L 15.1875 0 Z M 10.9375 -7.265625 L 9.28125 -7.21875 C 8.039062 -7.175781 7.113281 -6.945312 6.5 -6.53125 C 5.894531 -6.125 5.59375 -5.5 5.59375 -4.65625 C 5.59375 -3.445312 6.285156 -2.84375 7.671875 -2.84375 C 8.660156 -2.84375 9.453125 -3.128906 10.046875 -3.703125 C 10.640625 -4.273438 10.9375 -5.035156 10.9375 -5.984375 Z M 10.9375 -7.265625 "/></g></g></g><g fill="#000000" fill-opacity="1"><g transform="translate(491.12108, 241.666297)"><g><path d="M 6.53125 0 L 2.25 0 L 2.25 -21.828125 L 6.53125 -21.828125 Z M 6.53125 0 "/></g></g></g><g fill="#7ed957" fill-opacity="1"><g transform="translate(214.254337, 21.688032)"><g><path d="M 5.796875 0.21875 C 4.316406 0.21875 3.148438 -0.351562 2.296875 -1.5 C 1.453125 -2.65625 1.03125 -4.25 1.03125 -6.28125 C 1.03125 -8.351562 1.460938 -9.96875 2.328125 -11.125 C 3.191406 -12.28125 4.378906 -12.859375 5.890625 -12.859375 C 7.472656 -12.859375 8.6875 -12.238281 9.53125 -11 L 9.640625 -11 C 9.460938 -11.9375 9.375 -12.773438 9.375 -13.515625 L 9.375 -17.5625 L 12.828125 -17.5625 L 12.828125 0 L 10.1875 0 L 9.53125 -1.640625 L 9.375 -1.640625 C 8.59375 -0.398438 7.398438 0.21875 5.796875 0.21875 Z M 7 -2.515625 C 7.882812 -2.515625 8.53125 -2.769531 8.9375 -3.28125 C 9.351562 -3.789062 9.578125 -4.660156 9.609375 -5.890625 L 9.609375 -6.265625 C 9.609375 -7.617188 9.398438 -8.585938 8.984375 -9.171875 C 8.566406 -9.753906 7.890625 -10.046875 6.953125 -10.046875 C 6.179688 -10.046875 5.582031 -9.722656 5.15625 -9.078125 C 4.738281 -8.429688 4.53125 -7.484375 4.53125 -6.234375 C 4.53125 -4.992188 4.742188 -4.0625 5.171875 -3.4375 C 5.597656 -2.820312 6.207031 -2.515625 7 -2.515625 Z M 7 -2.515625 "/></g></g></g><g fill="#7ed957" fill-opacity="1"><g transform="translate(228.878237, 21.688032)"><g><path d="M 7.03125 -10.40625 C 6.300781 -10.40625 5.726562 -10.171875 5.3125 -9.703125 C 4.894531 -9.242188 4.660156 -8.585938 4.609375 -7.734375 L 9.4375 -7.734375 C 9.414062 -8.585938 9.191406 -9.242188 8.765625 -9.703125 C 8.335938 -10.171875 7.757812 -10.40625 7.03125 -10.40625 Z M 7.515625 0.21875 C 5.484375 0.21875 3.894531 -0.335938 2.75 -1.453125 C 1.601562 -2.578125 1.03125 -4.164062 1.03125 -6.21875 C 1.03125 -8.332031 1.554688 -9.96875 2.609375 -11.125 C 3.671875 -12.28125 5.132812 -12.859375 7 -12.859375 C 8.789062 -12.859375 10.179688 -12.347656 11.171875 -11.328125 C 12.160156 -10.316406 12.65625 -8.914062 12.65625 -7.125 L 12.65625 -5.453125 L 4.53125 -5.453125 C 4.5625 -4.472656 4.847656 -3.707031 5.390625 -3.15625 C 5.929688 -2.601562 6.691406 -2.328125 7.671875 -2.328125 C 8.429688 -2.328125 9.148438 -2.40625 9.828125 -2.5625 C 10.503906 -2.726562 11.210938 -2.984375 11.953125 -3.328125 L 11.953125 -0.671875 C 11.347656 -0.367188 10.703125 -0.144531 10.015625 0 C 9.335938 0.144531 8.503906 0.21875 7.515625 0.21875 Z M 5.046875 -14 L 5.046875 -14.3125 C 6.335938 -15.8125 7.21875 -16.941406 7.6875 -17.703125 L 11.546875 -17.703125 L 11.546875 -17.46875 C 11.160156 -17.070312 10.492188 -16.488281 9.546875 -15.71875 C 8.609375 -14.945312 7.867188 -14.375 7.328125 -14 Z M 5.046875 -14 "/></g></g></g><g fill="#7ed957" fill-opacity="1"><g transform="translate(242.531725, 21.688032)"><g><path d="M 7.125 -2.515625 C 7.71875 -2.515625 8.4375 -2.644531 9.28125 -2.90625 L 9.28125 -0.34375 C 8.425781 0.03125 7.375 0.21875 6.125 0.21875 C 4.75 0.21875 3.742188 -0.125 3.109375 -0.8125 C 2.484375 -1.507812 2.171875 -2.554688 2.171875 -3.953125 L 2.171875 -10.03125 L 0.53125 -10.03125 L 0.53125 -11.484375 L 2.421875 -12.640625 L 3.421875 -15.296875 L 5.625 -15.296875 L 5.625 -12.609375 L 9.15625 -12.609375 L 9.15625 -10.03125 L 5.625 -10.03125 L 5.625 -3.953125 C 5.625 -3.460938 5.757812 -3.097656 6.03125 -2.859375 C 6.300781 -2.628906 6.664062 -2.515625 7.125 -2.515625 Z M 7.125 -2.515625 "/></g></g></g><g fill="#7ed957" fill-opacity="1"><g transform="translate(252.563089, 21.688032)"><g><path d="M 7.03125 -10.40625 C 6.300781 -10.40625 5.726562 -10.171875 5.3125 -9.703125 C 4.894531 -9.242188 4.660156 -8.585938 4.609375 -7.734375 L 9.4375 -7.734375 C 9.414062 -8.585938 9.191406 -9.242188 8.765625 -9.703125 C 8.335938 -10.171875 7.757812 -10.40625 7.03125 -10.40625 Z M 7.515625 0.21875 C 5.484375 0.21875 3.894531 -0.335938 2.75 -1.453125 C 1.601562 -2.578125 1.03125 -4.164062 1.03125 -6.21875 C 1.03125 -8.332031 1.554688 -9.96875 2.609375 -11.125 C 3.671875 -12.28125 5.132812 -12.859375 7 -12.859375 C 8.789062 -12.859375 10.179688 -12.347656 11.171875 -11.328125 C 12.160156 -10.316406 12.65625 -8.914062 12.65625 -7.125 L 12.65625 -5.453125 L 4.53125 -5.453125 C 4.5625 -4.472656 4.847656 -3.707031 5.390625 -3.15625 C 5.929688 -2.601562 6.691406 -2.328125 7.671875 -2.328125 C 8.429688 -2.328125 9.148438 -2.40625 9.828125 -2.5625 C 10.503906 -2.726562 11.210938 -2.984375 11.953125 -3.328125 L 11.953125 -0.671875 C 11.347656 -0.367188 10.703125 -0.144531 10.015625 0 C 9.335938 0.144531 8.503906 0.21875 7.515625 0.21875 Z M 7.515625 0.21875 "/></g></g></g><g fill="#7ed957" fill-opacity="1"><g transform="translate(266.216577, 21.688032)"><g><path d="M 8.84375 -12.859375 C 9.3125 -12.859375 9.703125 -12.820312 10.015625 -12.75 L 9.75 -9.53125 C 9.46875 -9.601562 9.128906 -9.640625 8.734375 -9.640625 C 7.640625 -9.640625 6.785156 -9.351562 6.171875 -8.78125 C 5.554688 -8.21875 5.25 -7.429688 5.25 -6.421875 L 5.25 0 L 1.8125 0 L 1.8125 -12.609375 L 4.40625 -12.609375 L 4.921875 -10.5 L 5.09375 -10.5 C 5.476562 -11.207031 6.003906 -11.773438 6.671875 -12.203125 C 7.335938 -12.640625 8.0625 -12.859375 8.84375 -12.859375 Z M 8.84375 -12.859375 "/></g></g></g><g fill="#7ed957" fill-opacity="1"><g transform="translate(276.71058, 21.688032)"><g><path d="M 13.09375 0 L 9.65625 0 L 9.65625 -7.375 C 9.65625 -8.28125 9.503906 -8.957031 9.203125 -9.40625 C 8.898438 -9.863281 8.421875 -10.09375 7.765625 -10.09375 C 6.878906 -10.09375 6.238281 -9.769531 5.84375 -9.125 C 5.445312 -8.476562 5.25 -7.414062 5.25 -5.9375 L 5.25 0 L 1.8125 0 L 1.8125 -12.609375 L 4.4375 -12.609375 L 4.890625 -11 L 5.09375 -11 C 5.425781 -11.582031 5.910156 -12.035156 6.546875 -12.359375 C 7.191406 -12.691406 7.925781 -12.859375 8.75 -12.859375 C 10.644531 -12.859375 11.925781 -12.238281 12.59375 -11 L 12.890625 -11 C 13.234375 -11.582031 13.734375 -12.035156 14.390625 -12.359375 C 15.046875 -12.691406 15.789062 -12.859375 16.625 -12.859375 C 18.050781 -12.859375 19.128906 -12.488281 19.859375 -11.75 C 20.597656 -11.019531 20.96875 -9.84375 20.96875 -8.21875 L 20.96875 0 L 17.515625 0 L 17.515625 -7.375 C 17.515625 -8.28125 17.359375 -8.957031 17.046875 -9.40625 C 16.742188 -9.863281 16.265625 -10.09375 15.609375 -10.09375 C 14.773438 -10.09375 14.144531 -9.789062 13.71875 -9.1875 C 13.300781 -8.59375 13.09375 -7.640625 13.09375 -6.328125 Z M 13.09375 0 "/></g></g></g><g fill="#7ed957" fill-opacity="1"><g transform="translate(299.402451, 21.688032)"><g><path d="M 1.65625 -15.875 C 1.65625 -17 2.28125 -17.5625 3.53125 -17.5625 C 4.78125 -17.5625 5.40625 -17 5.40625 -15.875 C 5.40625 -15.34375 5.25 -14.925781 4.9375 -14.625 C 4.625 -14.332031 4.15625 -14.1875 3.53125 -14.1875 C 2.28125 -14.1875 1.65625 -14.75 1.65625 -15.875 Z M 5.25 0 L 1.8125 0 L 1.8125 -12.609375 L 5.25 -12.609375 Z M 5.25 0 "/></g></g></g><g fill="#7ed957" fill-opacity="1"><g transform="translate(306.454872, 21.688032)"><g><path d="M 13.453125 0 L 10.015625 0 L 10.015625 -7.375 C 10.015625 -8.28125 9.847656 -8.957031 9.515625 -9.40625 C 9.191406 -9.863281 8.679688 -10.09375 7.984375 -10.09375 C 7.015625 -10.09375 6.316406 -9.769531 5.890625 -9.125 C 5.460938 -8.488281 5.25 -7.425781 5.25 -5.9375 L 5.25 0 L 1.8125 0 L 1.8125 -12.609375 L 4.4375 -12.609375 L 4.890625 -11 L 5.09375 -11 C 5.476562 -11.613281 6.003906 -12.078125 6.671875 -12.390625 C 7.347656 -12.703125 8.113281 -12.859375 8.96875 -12.859375 C 10.4375 -12.859375 11.550781 -12.457031 12.3125 -11.65625 C 13.070312 -10.863281 13.453125 -9.71875 13.453125 -8.21875 Z M 13.453125 0 "/></g></g></g><g fill="#7ed957" fill-opacity="1"><g transform="translate(321.642966, 21.688032)"><g><path d="M 9.8125 0 L 9.15625 -1.71875 L 9.0625 -1.71875 C 8.476562 -0.988281 7.878906 -0.484375 7.265625 -0.203125 C 6.660156 0.078125 5.863281 0.21875 4.875 0.21875 C 3.664062 0.21875 2.710938 -0.125 2.015625 -0.8125 C 1.316406 -1.5 0.96875 -2.484375 0.96875 -3.765625 C 0.96875 -5.109375 1.4375 -6.097656 2.375 -6.734375 C 3.3125 -7.367188 4.722656 -7.71875 6.609375 -7.78125 L 8.796875 -7.859375 L 8.796875 -8.40625 C 8.796875 -9.6875 8.144531 -10.328125 6.84375 -10.328125 C 5.832031 -10.328125 4.644531 -10.019531 3.28125 -9.40625 L 2.140625 -11.734375 C 3.597656 -12.492188 5.207031 -12.875 6.96875 -12.875 C 8.664062 -12.875 9.960938 -12.503906 10.859375 -11.765625 C 11.765625 -11.023438 12.21875 -9.90625 12.21875 -8.40625 L 12.21875 0 Z M 8.796875 -5.84375 L 7.46875 -5.796875 C 6.46875 -5.765625 5.722656 -5.582031 5.234375 -5.25 C 4.742188 -4.925781 4.5 -4.425781 4.5 -3.75 C 4.5 -2.78125 5.054688 -2.296875 6.171875 -2.296875 C 6.972656 -2.296875 7.609375 -2.523438 8.078125 -2.984375 C 8.554688 -3.441406 8.796875 -4.050781 8.796875 -4.8125 Z M 8.796875 -5.84375 "/></g></g></g><g fill="#7ed957" fill-opacity="1"><g transform="translate(335.601118, 21.688032)"><g><path d="M 13.453125 0 L 10.015625 0 L 10.015625 -7.375 C 10.015625 -8.28125 9.847656 -8.957031 9.515625 -9.40625 C 9.191406 -9.863281 8.679688 -10.09375 7.984375 -10.09375 C 7.015625 -10.09375 6.316406 -9.769531 5.890625 -9.125 C 5.460938 -8.488281 5.25 -7.425781 5.25 -5.9375 L 5.25 0 L 1.8125 0 L 1.8125 -12.609375 L 4.4375 -12.609375 L 4.890625 -11 L 5.09375 -11 C 5.476562 -11.613281 6.003906 -12.078125 6.671875 -12.390625 C 7.347656 -12.703125 8.113281 -12.859375 8.96875 -12.859375 C 10.4375 -12.859375 11.550781 -12.457031 12.3125 -11.65625 C 13.070312 -10.863281 13.453125 -9.71875 13.453125 -8.21875 Z M 13.453125 0 "/></g></g></g><g fill="#7ed957" fill-opacity="1"><g transform="translate(350.789212, 21.688032)"><g><path d="M 7.125 -2.515625 C 7.71875 -2.515625 8.4375 -2.644531 9.28125 -2.90625 L 9.28125 -0.34375 C 8.425781 0.03125 7.375 0.21875 6.125 0.21875 C 4.75 0.21875 3.742188 -0.125 3.109375 -0.8125 C 2.484375 -1.507812 2.171875 -2.554688 2.171875 -3.953125 L 2.171875 -10.03125 L 0.53125 -10.03125 L 0.53125 -11.484375 L 2.421875 -12.640625 L 3.421875 -15.296875 L 5.625 -15.296875 L 5.625 -12.609375 L 9.15625 -12.609375 L 9.15625 -10.03125 L 5.625 -10.03125 L 5.625 -3.953125 C 5.625 -3.460938 5.757812 -3.097656 6.03125 -2.859375 C 6.300781 -2.628906 6.664062 -2.515625 7.125 -2.515625 Z M 7.125 -2.515625 "/></g></g></g><g fill="#7ed957" fill-opacity="1"><g transform="translate(268.148866, 53.93803)"><g/></g></g><g fill="#7ed957" fill-opacity="1"><g transform="translate(274.148866, 53.93803)"><g><path d="M 0.921875 -6.328125 C 0.921875 -8.328125 1.210938 -10.191406 1.796875 -11.921875 C 2.378906 -13.660156 3.222656 -15.1875 4.328125 -16.5 L 7.140625 -16.5 C 6.078125 -15.039062 5.273438 -13.441406 4.734375 -11.703125 C 4.191406 -9.972656 3.921875 -8.191406 3.921875 -6.359375 C 3.921875 -4.515625 4.195312 -2.734375 4.75 -1.015625 C 5.300781 0.703125 6.09375 2.257812 7.125 3.65625 L 4.328125 3.65625 C 3.210938 2.375 2.363281 0.878906 1.78125 -0.828125 C 1.207031 -2.535156 0.921875 -4.367188 0.921875 -6.328125 Z M 0.921875 -6.328125 "/></g></g></g><g fill="#7ed957" fill-opacity="1"><g transform="translate(281.979874, 53.93803)"><g><path d="M 15.765625 -8.40625 C 15.765625 -5.6875 14.988281 -3.601562 13.4375 -2.15625 C 11.894531 -0.71875 9.664062 0 6.75 0 L 2.078125 0 L 2.078125 -16.5 L 7.25 -16.5 C 9.945312 -16.5 12.039062 -15.785156 13.53125 -14.359375 C 15.019531 -12.941406 15.765625 -10.957031 15.765625 -8.40625 Z M 12.125 -8.3125 C 12.125 -11.851562 10.5625 -13.625 7.4375 -13.625 L 5.578125 -13.625 L 5.578125 -2.890625 L 7.078125 -2.890625 C 10.441406 -2.890625 12.125 -4.695312 12.125 -8.3125 Z M 12.125 -8.3125 "/></g></g></g><g fill="#7ed957" fill-opacity="1"><g transform="translate(299.086227, 53.93803)"><g><path d="M 6.90625 -6.328125 C 6.90625 -4.347656 6.613281 -2.503906 6.03125 -0.796875 C 5.445312 0.910156 4.609375 2.394531 3.515625 3.65625 L 0.703125 3.65625 C 1.722656 2.269531 2.507812 0.71875 3.0625 -1 C 3.625 -2.71875 3.90625 -4.503906 3.90625 -6.359375 C 3.90625 -8.191406 3.632812 -9.972656 3.09375 -11.703125 C 2.550781 -13.441406 1.75 -15.039062 0.6875 -16.5 L 3.515625 -16.5 C 4.617188 -15.175781 5.457031 -13.644531 6.03125 -11.90625 C 6.613281 -10.164062 6.90625 -8.304688 6.90625 -6.328125 Z M 6.90625 -6.328125 "/></g></g></g><g clip-path="url(#9fc7868be4)"><path fill="#000000" d="M 361.539062 98.808594 C 361.539062 91.039062 367.941406 84.714844 375.8125 84.714844 L 418.453125 84.714844 C 425.878906 84.714844 432.792969 80.464844 436.0625 73.878906 C 436.289062 73.425781 436.757812 73.136719 437.273438 73.136719 C 437.785156 73.136719 438.253906 73.425781 438.480469 73.878906 C 441.753906 80.464844 448.664062 84.714844 456.089844 84.714844 L 498.734375 84.714844 C 506.605469 84.714844 513.007812 91.039062 513.007812 98.808594 C 513.007812 99.542969 512.402344 100.140625 511.660156 100.140625 C 510.917969 100.140625 510.316406 99.542969 510.316406 98.808594 C 510.316406 92.503906 505.121094 87.375 498.734375 87.375 L 456.089844 87.375 C 448.472656 87.375 441.328125 83.4375 437.273438 77.171875 C 433.214844 83.4375 426.070312 87.375 418.453125 87.375 L 375.8125 87.375 C 369.425781 87.375 364.230469 92.503906 364.230469 98.808594 C 364.230469 99.542969 363.628906 100.140625 362.882812 100.140625 C 362.140625 100.140625 361.539062 99.542969 361.539062 98.808594 " fill-opacity="1" fill-rule="nonzero"/></g><g fill="#5271ff" fill-opacity="1"><g transform="translate(397.750795, 53.58699)"><g><path d="M 20.203125 0 L 14.828125 0 L 6.15625 -15.09375 L 6.03125 -15.09375 C 6.195312 -12.425781 6.28125 -10.523438 6.28125 -9.390625 L 6.28125 0 L 2.515625 0 L 2.515625 -19.9375 L 7.84375 -19.9375 L 16.5 -5 L 16.59375 -5 C 16.457031 -7.59375 16.390625 -9.425781 16.390625 -10.5 L 16.390625 -19.9375 L 20.203125 -19.9375 Z M 20.203125 0 "/></g></g></g><g fill="#5271ff" fill-opacity="1"><g transform="translate(420.463654, 53.58699)"><g><path d="M 5.5 -7.65625 C 5.5 -6.144531 5.742188 -5 6.234375 -4.21875 C 6.734375 -3.445312 7.539062 -3.0625 8.65625 -3.0625 C 9.769531 -3.0625 10.566406 -3.445312 11.046875 -4.21875 C 11.535156 -4.988281 11.78125 -6.132812 11.78125 -7.65625 C 11.78125 -9.164062 11.535156 -10.296875 11.046875 -11.046875 C 10.554688 -11.804688 9.753906 -12.1875 8.640625 -12.1875 C 7.523438 -12.1875 6.722656 -11.8125 6.234375 -11.0625 C 5.742188 -10.3125 5.5 -9.175781 5.5 -7.65625 Z M 16.046875 -7.65625 C 16.046875 -5.164062 15.390625 -3.222656 14.078125 -1.828125 C 12.765625 -0.429688 10.941406 0.265625 8.609375 0.265625 C 7.140625 0.265625 5.847656 -0.0507812 4.734375 -0.6875 C 3.617188 -1.332031 2.757812 -2.253906 2.15625 -3.453125 C 1.550781 -4.648438 1.25 -6.050781 1.25 -7.65625 C 1.25 -10.144531 1.898438 -12.078125 3.203125 -13.453125 C 4.503906 -14.835938 6.332031 -15.53125 8.6875 -15.53125 C 10.15625 -15.53125 11.445312 -15.210938 12.5625 -14.578125 C 13.675781 -13.941406 14.535156 -13.023438 15.140625 -11.828125 C 15.742188 -10.640625 16.046875 -9.25 16.046875 -7.65625 Z M 16.046875 -7.65625 "/></g></g></g><g fill="#5271ff" fill-opacity="1"><g transform="translate(437.760894, 53.58699)"><g><path d="M 15.84375 0 L 11.671875 0 L 11.671875 -8.90625 C 11.671875 -10.007812 11.488281 -10.832031 11.125 -11.375 C 10.757812 -11.925781 10.179688 -12.203125 9.390625 -12.203125 C 8.328125 -12.203125 7.550781 -11.8125 7.0625 -11.03125 C 6.582031 -10.25 6.34375 -8.960938 6.34375 -7.171875 L 6.34375 0 L 2.1875 0 L 2.1875 -15.25 L 5.359375 -15.25 L 5.921875 -13.296875 L 6.15625 -13.296875 C 6.5625 -13.992188 7.148438 -14.539062 7.921875 -14.9375 C 8.691406 -15.332031 9.578125 -15.53125 10.578125 -15.53125 C 12.867188 -15.53125 14.414062 -14.785156 15.21875 -13.296875 L 15.59375 -13.296875 C 16 -14.003906 16.597656 -14.550781 17.390625 -14.9375 C 18.191406 -15.332031 19.09375 -15.53125 20.09375 -15.53125 C 21.820312 -15.53125 23.128906 -15.085938 24.015625 -14.203125 C 24.898438 -13.316406 25.34375 -11.894531 25.34375 -9.9375 L 25.34375 0 L 21.171875 0 L 21.171875 -8.90625 C 21.171875 -10.007812 20.984375 -10.832031 20.609375 -11.375 C 20.242188 -11.925781 19.664062 -12.203125 18.875 -12.203125 C 17.863281 -12.203125 17.101562 -11.835938 16.59375 -11.109375 C 16.09375 -10.390625 15.84375 -9.238281 15.84375 -7.65625 Z M 15.84375 0 "/></g></g></g><g clip-path="url(#7829300299)"><path fill="#000000" d="M 492.738281 164.234375 C 492.738281 175.242188 483.726562 184.203125 472.65625 184.203125 L 412.65625 184.203125 C 402.207031 184.203125 392.480469 190.226562 387.878906 199.554688 C 387.558594 200.195312 386.902344 200.605469 386.175781 200.605469 C 385.457031 200.605469 384.796875 200.195312 384.480469 199.554688 C 379.871094 190.226562 370.148438 184.203125 359.699219 184.203125 L 299.699219 184.203125 C 288.625 184.203125 279.617188 175.242188 279.617188 164.234375 C 279.617188 163.195312 280.464844 162.351562 281.511719 162.351562 C 282.554688 162.351562 283.402344 163.195312 283.402344 164.234375 C 283.402344 173.167969 290.710938 180.4375 299.699219 180.4375 L 359.699219 180.4375 C 370.417969 180.4375 380.46875 186.011719 386.175781 194.890625 C 391.886719 186.011719 401.9375 180.4375 412.65625 180.4375 L 472.65625 180.4375 C 481.640625 180.4375 488.949219 173.167969 488.949219 164.234375 C 488.949219 163.195312 489.796875 162.351562 490.84375 162.351562 C 491.890625 162.351562 492.738281 163.195312 492.738281 164.234375 " fill-opacity="1" fill-rule="nonzero"/></g></svg>